%TF.GenerationSoftware,KiCad,Pcbnew,10.0.4*%
%TF.CreationDate,2026-08-24T20:17:02+02:00*%
%TF.ProjectId,btns,62746e73-2e6b-4696-9361-645f70636258,rev?*%
%TF.SameCoordinates,Original*%
%TF.FileFunction,Copper,L1,Top*%
%TF.FilePolarity,Positive*%
%FSLAX46Y46*%
G04 Gerber Fmt 4.6, Leading zero omitted, Abs format (unit mm)*
G04 Created by KiCad (PCBNEW 10.0.4) date 2026-08-24 20:17:02*
%MOMM*%
%LPD*%
G01*
G04 APERTURE LIST*
G04 Aperture macros list*
%AMRoundRect*
0 Rectangle with rounded corners*
0 $1 Rounding radius*
0 $2 $3 $4 $5 $6 $7 $8 $9 X,Y pos of 4 corners*
0 Add a 4 corners polygon primitive as box body*
4,1,4,$2,$3,$4,$5,$6,$7,$8,$9,$2,$3,0*
0 Add four circle primitives for the rounded corners*
1,1,$1+$1,$2,$3*
1,1,$1+$1,$4,$5*
1,1,$1+$1,$6,$7*
1,1,$1+$1,$8,$9*
0 Add four rect primitives between the rounded corners*
20,1,$1+$1,$2,$3,$4,$5,0*
20,1,$1+$1,$4,$5,$6,$7,0*
20,1,$1+$1,$6,$7,$8,$9,0*
20,1,$1+$1,$8,$9,$2,$3,0*%
G04 Aperture macros list end*
%TA.AperFunction,SMDPad,CuDef*%
%ADD10RoundRect,0.250001X-0.624999X0.462499X-0.624999X-0.462499X0.624999X-0.462499X0.624999X0.462499X0*%
%TD*%
%TA.AperFunction,SMDPad,CuDef*%
%ADD11R,0.650000X1.050000*%
%TD*%
%TA.AperFunction,ViaPad*%
%ADD12C,0.600000*%
%TD*%
%TA.AperFunction,Conductor*%
%ADD13C,0.200000*%
%TD*%
G04 APERTURE END LIST*
D10*
%TO.P,D2,1,K_1*%
%TO.N,GND*%
X179500000Y-88762500D03*
%TO.P,D2,2,A_2*%
%TO.N,Net-(D2-A)*%
X179500000Y-91737500D03*
%TD*%
D11*
%TO.P,SW2,1,1_1*%
%TO.N,Net-(R10-Pad1)*%
X172350000Y-92325000D03*
%TO.P,SW2,2,2_2*%
%TO.N,BTNS*%
X172350000Y-88175000D03*
%TO.P,SW2,3*%
%TO.N,N/C*%
X174500000Y-92325000D03*
%TO.P,SW2,4*%
X174500000Y-88175000D03*
%TD*%
D10*
%TO.P,D4,1,K_1*%
%TO.N,GND*%
X189750000Y-88762500D03*
%TO.P,D4,2,A_2*%
%TO.N,Net-(D4-A)*%
X189750000Y-91737500D03*
%TD*%
%TO.P,D3,1,K_1*%
%TO.N,GND*%
X169500000Y-89012500D03*
%TO.P,D3,2,A_2*%
%TO.N,Net-(D3-A)*%
X169500000Y-91987500D03*
%TD*%
D11*
%TO.P,SW4,1,1_1*%
%TO.N,3.3V*%
X194575000Y-88175000D03*
%TO.P,SW4,2,2_2*%
%TO.N,BTNS*%
X194575000Y-92325000D03*
%TO.P,SW4,3*%
%TO.N,N/C*%
X192425000Y-88175000D03*
%TO.P,SW4,4*%
X192425000Y-92325000D03*
%TD*%
%TO.P,SW3,1,1_1*%
%TO.N,Net-(R10-Pad2)*%
X182350000Y-92325000D03*
%TO.P,SW3,2,2_2*%
%TO.N,BTNS*%
X182350000Y-88175000D03*
%TO.P,SW3,3*%
%TO.N,N/C*%
X184500000Y-92325000D03*
%TO.P,SW3,4*%
X184500000Y-88175000D03*
%TD*%
D12*
%TO.N,GND*%
X177417500Y-89117500D03*
X176200000Y-88200000D03*
%TO.N,3.3V*%
X177237943Y-87600000D03*
%TO.N,Net-(D3-A)*%
X183175001Y-87768978D03*
%TO.N,BTNS*%
X181000000Y-90000000D03*
X194575000Y-92325000D03*
%TO.N,GND*%
X194500000Y-87000000D03*
%TO.N,3.3V*%
X185500000Y-87000000D03*
%TO.N,Net-(R10-Pad2)*%
X182350000Y-92350000D03*
%TO.N,Net-(R10-Pad1)*%
X172350000Y-92325000D03*
%TO.N,BTNS*%
X172600000Y-88450000D03*
%TO.N,Net-(D4-A)*%
X185500000Y-92305000D03*
%TO.N,Net-(D2-A)*%
X180500000Y-93000000D03*
%TO.N,3.3V*%
X179311216Y-90525002D03*
X194424357Y-88351021D03*
%TO.N,GND*%
X187000000Y-90000000D03*
X189750000Y-88762500D03*
X169500000Y-89000000D03*
%TD*%
%TO.N,GND*%
D13*
X177772500Y-88762500D02*
X179500000Y-88762500D01*
X177417500Y-89117500D02*
X177772500Y-88762500D01*
X175000000Y-87000000D02*
X176200000Y-88200000D01*
X171512500Y-87000000D02*
X175000000Y-87000000D01*
X169500000Y-89012500D02*
X171512500Y-87000000D01*
%TO.N,3.3V*%
X184600000Y-86100000D02*
X185500000Y-87000000D01*
X178737943Y-86100000D02*
X184600000Y-86100000D01*
X177237943Y-87600000D02*
X178737943Y-86100000D01*
X192450378Y-90325000D02*
X194424357Y-88351021D01*
X185500000Y-87000000D02*
X188825000Y-90325000D01*
X188825000Y-90325000D02*
X192450378Y-90325000D01*
%TO.N,Net-(D3-A)*%
X183175001Y-87575001D02*
X182100000Y-86500000D01*
X179186471Y-86500000D02*
X182100000Y-86500000D01*
X183175001Y-87768978D02*
X183175001Y-87575001D01*
%TO.N,BTNS*%
X182350000Y-88175000D02*
X181000000Y-89525000D01*
X181000000Y-89525000D02*
X181000000Y-90000000D01*
X184900000Y-90725000D02*
X192975000Y-90725000D01*
X192975000Y-90725000D02*
X194575000Y-92325000D01*
X182350000Y-88175000D02*
X184900000Y-90725000D01*
%TO.N,Net-(D3-A)*%
X176000000Y-89686471D02*
X179186471Y-86500000D01*
X176000000Y-93000000D02*
X176000000Y-89686471D01*
X175049998Y-93950002D02*
X176000000Y-93000000D01*
X171462502Y-93950002D02*
X175049998Y-93950002D01*
X169500000Y-91987500D02*
X171462502Y-93950002D01*
%TO.N,GND*%
X179500000Y-88762500D02*
X179500000Y-88500002D01*
%TO.N,Net-(D4-A)*%
X185500000Y-92305000D02*
X185500000Y-92371029D01*
X185500000Y-92371029D02*
X186633971Y-93505000D01*
%TO.N,Net-(D2-A)*%
X179500000Y-92000000D02*
X180500000Y-93000000D01*
X179500000Y-91737500D02*
X179500000Y-92000000D01*
%TO.N,Net-(D4-A)*%
X187982500Y-93505000D02*
X186633971Y-93505000D01*
X189750000Y-91737500D02*
X187982500Y-93505000D01*
%TO.N,3.3V*%
X194424357Y-88325643D02*
X194575000Y-88175000D01*
X194424357Y-88351021D02*
X194424357Y-88325643D01*
%TO.N,GND*%
X179500000Y-88762500D02*
X179500000Y-88500000D01*
%TD*%
%TA.AperFunction,Conductor*%
%TO.N,GND*%
G36*
X181576352Y-87104294D02*
G01*
X181589788Y-87103334D01*
X181609223Y-87113946D01*
X181630468Y-87120185D01*
X181639288Y-87130364D01*
X181651111Y-87136820D01*
X181661723Y-87156255D01*
X181676223Y-87172989D01*
X181678139Y-87186321D01*
X181684595Y-87198143D01*
X181683015Y-87220227D01*
X181686167Y-87242147D01*
X181680462Y-87255918D01*
X181679610Y-87267835D01*
X181662695Y-87298811D01*
X181581206Y-87407664D01*
X181581202Y-87407671D01*
X181530908Y-87542517D01*
X181524501Y-87602116D01*
X181524501Y-87602123D01*
X181524500Y-87602135D01*
X181524500Y-88099902D01*
X181504815Y-88166941D01*
X181488181Y-88187583D01*
X181086681Y-88589083D01*
X181025358Y-88622568D01*
X180955666Y-88617584D01*
X180899733Y-88575712D01*
X180875316Y-88510248D01*
X180875000Y-88501402D01*
X180875000Y-88250027D01*
X180874999Y-88250014D01*
X180864506Y-88147310D01*
X180864505Y-88147303D01*
X180809358Y-87980881D01*
X180809356Y-87980876D01*
X180717315Y-87831655D01*
X180593344Y-87707684D01*
X180444123Y-87615643D01*
X180444118Y-87615641D01*
X180277696Y-87560494D01*
X180277689Y-87560493D01*
X180174985Y-87550000D01*
X179750000Y-87550000D01*
X179750000Y-88638500D01*
X179730315Y-88705539D01*
X179677511Y-88751294D01*
X179626000Y-88762500D01*
X179500000Y-88762500D01*
X179500000Y-88888500D01*
X179480315Y-88955539D01*
X179427511Y-89001294D01*
X179376000Y-89012500D01*
X178125000Y-89012500D01*
X178125000Y-89274985D01*
X178135493Y-89377689D01*
X178135494Y-89377696D01*
X178190641Y-89544118D01*
X178190643Y-89544123D01*
X178282684Y-89693344D01*
X178406655Y-89817315D01*
X178555876Y-89909356D01*
X178555882Y-89909358D01*
X178568291Y-89913470D01*
X178625737Y-89953240D01*
X178652562Y-90017755D01*
X178640250Y-90086531D01*
X178632394Y-90100067D01*
X178601824Y-90145818D01*
X178601818Y-90145829D01*
X178541480Y-90291500D01*
X178541477Y-90291512D01*
X178510716Y-90446155D01*
X178510716Y-90548704D01*
X178491031Y-90615743D01*
X178451815Y-90654241D01*
X178406346Y-90682287D01*
X178282286Y-90806348D01*
X178190187Y-90955662D01*
X178190186Y-90955664D01*
X178135001Y-91122203D01*
X178135000Y-91122204D01*
X178124500Y-91224984D01*
X178124500Y-92250015D01*
X178135000Y-92352795D01*
X178135001Y-92352797D01*
X178143423Y-92378213D01*
X178190186Y-92519335D01*
X178190187Y-92519337D01*
X178282286Y-92668651D01*
X178282289Y-92668655D01*
X178406344Y-92792710D01*
X178406348Y-92792713D01*
X178555662Y-92884812D01*
X178555664Y-92884813D01*
X178555666Y-92884814D01*
X178722203Y-92939999D01*
X178824992Y-92950500D01*
X179549901Y-92950500D01*
X179579340Y-92959144D01*
X179609326Y-92965667D01*
X179614343Y-92969422D01*
X179616940Y-92970185D01*
X179637581Y-92986817D01*
X179665425Y-93014660D01*
X179698911Y-93075983D01*
X179699362Y-93078151D01*
X179730261Y-93233491D01*
X179730264Y-93233501D01*
X179790602Y-93379172D01*
X179790609Y-93379185D01*
X179878210Y-93510288D01*
X179878213Y-93510292D01*
X179989707Y-93621786D01*
X179989711Y-93621789D01*
X180120814Y-93709390D01*
X180120827Y-93709397D01*
X180266498Y-93769735D01*
X180266503Y-93769737D01*
X180421153Y-93800499D01*
X180421156Y-93800500D01*
X180421158Y-93800500D01*
X180578844Y-93800500D01*
X180578845Y-93800499D01*
X180733497Y-93769737D01*
X180879179Y-93709394D01*
X181010289Y-93621789D01*
X181121789Y-93510289D01*
X181209394Y-93379179D01*
X181213728Y-93368717D01*
X181244760Y-93293797D01*
X181269737Y-93233497D01*
X181300500Y-93078842D01*
X181300500Y-92921158D01*
X181269737Y-92766503D01*
X181263425Y-92751264D01*
X181209397Y-92620827D01*
X181209390Y-92620814D01*
X181121789Y-92489711D01*
X181121786Y-92489707D01*
X181010292Y-92378213D01*
X181010288Y-92378210D01*
X180930609Y-92324970D01*
X180885804Y-92271358D01*
X180875500Y-92221868D01*
X180875500Y-91752135D01*
X181524500Y-91752135D01*
X181524500Y-92782075D01*
X181524500Y-92782083D01*
X181524501Y-92897872D01*
X181530909Y-92957483D01*
X181546275Y-92998683D01*
X181546276Y-92998686D01*
X181581202Y-93092328D01*
X181581206Y-93092335D01*
X181667452Y-93207544D01*
X181667455Y-93207547D01*
X181782664Y-93293793D01*
X181782671Y-93293797D01*
X181827618Y-93310561D01*
X181917517Y-93344091D01*
X181977127Y-93350500D01*
X182722872Y-93350499D01*
X182782483Y-93344091D01*
X182917331Y-93293796D01*
X183032546Y-93207546D01*
X183118796Y-93092331D01*
X183169091Y-92957483D01*
X183175500Y-92897873D01*
X183175499Y-91752128D01*
X183169091Y-91692517D01*
X183118796Y-91557669D01*
X183118795Y-91557668D01*
X183118793Y-91557664D01*
X183032547Y-91442455D01*
X183032544Y-91442452D01*
X182917335Y-91356206D01*
X182917328Y-91356202D01*
X182782486Y-91305910D01*
X182782485Y-91305909D01*
X182782483Y-91305909D01*
X182722873Y-91299500D01*
X182722863Y-91299500D01*
X181977129Y-91299500D01*
X181977123Y-91299501D01*
X181917516Y-91305908D01*
X181782671Y-91356202D01*
X181782664Y-91356206D01*
X181667455Y-91442452D01*
X181667452Y-91442455D01*
X181581206Y-91557664D01*
X181581202Y-91557671D01*
X181530908Y-91692517D01*
X181524501Y-91752116D01*
X181524501Y-91752123D01*
X181524500Y-91752135D01*
X180875500Y-91752135D01*
X180875500Y-91224997D01*
X180875499Y-91224984D01*
X180873525Y-91205666D01*
X180864999Y-91122203D01*
X180812410Y-90963503D01*
X180810009Y-90893676D01*
X180845741Y-90833634D01*
X180908261Y-90802441D01*
X180930117Y-90800500D01*
X181078844Y-90800500D01*
X181078845Y-90800499D01*
X181233497Y-90769737D01*
X181379179Y-90709394D01*
X181510289Y-90621789D01*
X181621789Y-90510289D01*
X181709394Y-90379179D01*
X181715949Y-90363355D01*
X181736919Y-90312727D01*
X181769737Y-90233497D01*
X181800500Y-90078842D01*
X181800500Y-89921158D01*
X181800500Y-89921155D01*
X181800499Y-89921153D01*
X181769739Y-89766511D01*
X181769736Y-89766501D01*
X181753993Y-89728493D01*
X181746524Y-89659023D01*
X181777800Y-89596544D01*
X181780845Y-89593388D01*
X182137416Y-89236818D01*
X182164343Y-89222114D01*
X182190162Y-89205522D01*
X182196362Y-89204630D01*
X182198739Y-89203333D01*
X182225097Y-89200499D01*
X182474902Y-89200499D01*
X182541941Y-89220184D01*
X182562583Y-89236818D01*
X184413583Y-91087819D01*
X184447068Y-91149142D01*
X184442084Y-91218834D01*
X184400212Y-91274767D01*
X184334748Y-91299184D01*
X184325903Y-91299500D01*
X184127130Y-91299500D01*
X184127123Y-91299501D01*
X184067516Y-91305908D01*
X183932671Y-91356202D01*
X183932664Y-91356206D01*
X183817455Y-91442452D01*
X183817452Y-91442455D01*
X183731206Y-91557664D01*
X183731202Y-91557671D01*
X183680908Y-91692517D01*
X183674501Y-91752116D01*
X183674501Y-91752123D01*
X183674500Y-91752135D01*
X183674500Y-92897870D01*
X183674501Y-92897876D01*
X183680908Y-92957483D01*
X183731202Y-93092328D01*
X183731206Y-93092335D01*
X183817452Y-93207544D01*
X183817455Y-93207547D01*
X183932664Y-93293793D01*
X183932671Y-93293797D01*
X183977618Y-93310561D01*
X184067517Y-93344091D01*
X184127127Y-93350500D01*
X184872872Y-93350499D01*
X184932483Y-93344091D01*
X185067331Y-93293796D01*
X185182546Y-93207546D01*
X185227249Y-93147829D01*
X185283181Y-93105959D01*
X185352873Y-93100975D01*
X185414196Y-93134460D01*
X186153449Y-93873713D01*
X186153451Y-93873716D01*
X186217555Y-93937820D01*
X186251039Y-93999141D01*
X186246055Y-94068833D01*
X186246053Y-94068834D01*
X186246054Y-94068834D01*
X186204183Y-94124768D01*
X186174286Y-94135918D01*
X186138720Y-94149184D01*
X186129873Y-94149500D01*
X175999097Y-94149500D01*
X175932058Y-94129815D01*
X175886303Y-94077011D01*
X175876359Y-94007853D01*
X175905384Y-93944297D01*
X175911416Y-93937819D01*
X176079500Y-93769735D01*
X176480520Y-93368716D01*
X176559577Y-93231784D01*
X176600501Y-93079057D01*
X176600501Y-92920942D01*
X176600501Y-92913347D01*
X176600500Y-92913329D01*
X176600500Y-89986568D01*
X176620185Y-89919529D01*
X176636819Y-89898887D01*
X177986887Y-88548819D01*
X178048210Y-88515334D01*
X178074568Y-88512500D01*
X179250000Y-88512500D01*
X179250000Y-87550000D01*
X179235421Y-87535421D01*
X179218030Y-87530315D01*
X179172275Y-87477511D01*
X179162331Y-87408353D01*
X179191356Y-87344797D01*
X179197388Y-87338319D01*
X179398888Y-87136819D01*
X179460211Y-87103334D01*
X179486569Y-87100500D01*
X181563429Y-87100500D01*
X181576352Y-87104294D01*
G37*
%TD.AperFunction*%
%TA.AperFunction,Conductor*%
G36*
X196442539Y-85920185D02*
G01*
X196488294Y-85972989D01*
X196499500Y-86024500D01*
X196499500Y-94025500D01*
X196479815Y-94092539D01*
X196427011Y-94138294D01*
X196375500Y-94149500D01*
X188486599Y-94149500D01*
X188419560Y-94129815D01*
X188373805Y-94077011D01*
X188363861Y-94007853D01*
X188392886Y-93944297D01*
X188398917Y-93937819D01*
X188423015Y-93913721D01*
X188463020Y-93873716D01*
X188463020Y-93873714D01*
X188473228Y-93863507D01*
X188473229Y-93863504D01*
X189349916Y-92986819D01*
X189411239Y-92953334D01*
X189437597Y-92950500D01*
X190425003Y-92950500D01*
X190425008Y-92950500D01*
X190527797Y-92939999D01*
X190694334Y-92884814D01*
X190843655Y-92792711D01*
X190967711Y-92668655D01*
X191059814Y-92519334D01*
X191114999Y-92352797D01*
X191125500Y-92250008D01*
X191125500Y-91449500D01*
X191145185Y-91382461D01*
X191197989Y-91336706D01*
X191249500Y-91325500D01*
X191582283Y-91325500D01*
X191649322Y-91345185D01*
X191695077Y-91397989D01*
X191705021Y-91467147D01*
X191681550Y-91523811D01*
X191656204Y-91557668D01*
X191656202Y-91557671D01*
X191605908Y-91692517D01*
X191599501Y-91752116D01*
X191599501Y-91752123D01*
X191599500Y-91752135D01*
X191599500Y-92897870D01*
X191599501Y-92897876D01*
X191605908Y-92957483D01*
X191656202Y-93092328D01*
X191656206Y-93092335D01*
X191742452Y-93207544D01*
X191742455Y-93207547D01*
X191857664Y-93293793D01*
X191857671Y-93293797D01*
X191902618Y-93310561D01*
X191992517Y-93344091D01*
X192052127Y-93350500D01*
X192797872Y-93350499D01*
X192857483Y-93344091D01*
X192992331Y-93293796D01*
X193107546Y-93207546D01*
X193193796Y-93092331D01*
X193244091Y-92957483D01*
X193250500Y-92897873D01*
X193250499Y-92149095D01*
X193270183Y-92082057D01*
X193322987Y-92036302D01*
X193392146Y-92026358D01*
X193455702Y-92055383D01*
X193462173Y-92061409D01*
X193613166Y-92212402D01*
X193713181Y-92312417D01*
X193746666Y-92373740D01*
X193749500Y-92400098D01*
X193749500Y-92897870D01*
X193749501Y-92897876D01*
X193755908Y-92957483D01*
X193806202Y-93092328D01*
X193806206Y-93092335D01*
X193892452Y-93207544D01*
X193892455Y-93207547D01*
X194007664Y-93293793D01*
X194007671Y-93293797D01*
X194052618Y-93310561D01*
X194142517Y-93344091D01*
X194202127Y-93350500D01*
X194947872Y-93350499D01*
X195007483Y-93344091D01*
X195142331Y-93293796D01*
X195257546Y-93207546D01*
X195343796Y-93092331D01*
X195394091Y-92957483D01*
X195400500Y-92897873D01*
X195400499Y-91752128D01*
X195394091Y-91692517D01*
X195343796Y-91557669D01*
X195343795Y-91557668D01*
X195343793Y-91557664D01*
X195257547Y-91442455D01*
X195257544Y-91442452D01*
X195142335Y-91356206D01*
X195142328Y-91356202D01*
X195007482Y-91305908D01*
X195007483Y-91305908D01*
X194947883Y-91299501D01*
X194947881Y-91299500D01*
X194947873Y-91299500D01*
X194947865Y-91299500D01*
X194450098Y-91299500D01*
X194383059Y-91279815D01*
X194362417Y-91263181D01*
X193462590Y-90363355D01*
X193455521Y-90356286D01*
X193455520Y-90356284D01*
X193449599Y-90350363D01*
X193429051Y-90312727D01*
X193416120Y-90289046D01*
X193416120Y-90289043D01*
X193416119Y-90289041D01*
X193418323Y-90258238D01*
X193421104Y-90219354D01*
X193421105Y-90219350D01*
X193421106Y-90219350D01*
X193421110Y-90219344D01*
X193449605Y-90175007D01*
X194387794Y-89236818D01*
X194449117Y-89203333D01*
X194475475Y-89200499D01*
X194947871Y-89200499D01*
X194947872Y-89200499D01*
X195007483Y-89194091D01*
X195142331Y-89143796D01*
X195257546Y-89057546D01*
X195343796Y-88942331D01*
X195394091Y-88807483D01*
X195400500Y-88747873D01*
X195400499Y-87602128D01*
X195394091Y-87542517D01*
X195391444Y-87535421D01*
X195343797Y-87407671D01*
X195343793Y-87407664D01*
X195257547Y-87292455D01*
X195257544Y-87292452D01*
X195142335Y-87206206D01*
X195142328Y-87206202D01*
X195007486Y-87155910D01*
X195007485Y-87155909D01*
X195007483Y-87155909D01*
X194947873Y-87149500D01*
X194947863Y-87149500D01*
X194202129Y-87149500D01*
X194202123Y-87149501D01*
X194142516Y-87155908D01*
X194007671Y-87206202D01*
X194007664Y-87206206D01*
X193892455Y-87292452D01*
X193892452Y-87292455D01*
X193806206Y-87407664D01*
X193806202Y-87407671D01*
X193755908Y-87542517D01*
X193749501Y-87602116D01*
X193749501Y-87602123D01*
X193749500Y-87602135D01*
X193749500Y-87882538D01*
X193729815Y-87949577D01*
X193728603Y-87951427D01*
X193714968Y-87971833D01*
X193714959Y-87971849D01*
X193654621Y-88117519D01*
X193654618Y-88117529D01*
X193623718Y-88272871D01*
X193614952Y-88289627D01*
X193610933Y-88308106D01*
X193592190Y-88333142D01*
X193591333Y-88334782D01*
X193589782Y-88336360D01*
X193462180Y-88463962D01*
X193400857Y-88497447D01*
X193331165Y-88492463D01*
X193275232Y-88450591D01*
X193250815Y-88385127D01*
X193250499Y-88376281D01*
X193250499Y-87602129D01*
X193250498Y-87602123D01*
X193250497Y-87602116D01*
X193244091Y-87542517D01*
X193241444Y-87535421D01*
X193193797Y-87407671D01*
X193193793Y-87407664D01*
X193107547Y-87292455D01*
X193107544Y-87292452D01*
X192992335Y-87206206D01*
X192992328Y-87206202D01*
X192857486Y-87155910D01*
X192857485Y-87155909D01*
X192857483Y-87155909D01*
X192797873Y-87149500D01*
X192797863Y-87149500D01*
X192052129Y-87149500D01*
X192052123Y-87149501D01*
X191992516Y-87155908D01*
X191857671Y-87206202D01*
X191857664Y-87206206D01*
X191742455Y-87292452D01*
X191742452Y-87292455D01*
X191656206Y-87407664D01*
X191656202Y-87407671D01*
X191605908Y-87542517D01*
X191599501Y-87602116D01*
X191599501Y-87602123D01*
X191599500Y-87602135D01*
X191599500Y-88747870D01*
X191599501Y-88747876D01*
X191605908Y-88807483D01*
X191656202Y-88942328D01*
X191656206Y-88942335D01*
X191742452Y-89057544D01*
X191742455Y-89057547D01*
X191857664Y-89143793D01*
X191857671Y-89143797D01*
X191891151Y-89156284D01*
X191992517Y-89194091D01*
X192052127Y-89200500D01*
X192426281Y-89200499D01*
X192493319Y-89220183D01*
X192539074Y-89272987D01*
X192549018Y-89342146D01*
X192519993Y-89405701D01*
X192513962Y-89412180D01*
X192438283Y-89487858D01*
X192237960Y-89688182D01*
X192176640Y-89721666D01*
X192150281Y-89724500D01*
X191169887Y-89724500D01*
X191102848Y-89704815D01*
X191057093Y-89652011D01*
X191047149Y-89582853D01*
X191057503Y-89548100D01*
X191059355Y-89544126D01*
X191114505Y-89377696D01*
X191114506Y-89377689D01*
X191124999Y-89274985D01*
X191125000Y-89274972D01*
X191125000Y-89012500D01*
X188413097Y-89012500D01*
X188346058Y-88992815D01*
X188325416Y-88976181D01*
X187599249Y-88250014D01*
X188375000Y-88250014D01*
X188375000Y-88512500D01*
X189500000Y-88512500D01*
X190000000Y-88512500D01*
X191125000Y-88512500D01*
X191125000Y-88250027D01*
X191124999Y-88250014D01*
X191114506Y-88147310D01*
X191114505Y-88147303D01*
X191059358Y-87980881D01*
X191059356Y-87980876D01*
X190967315Y-87831655D01*
X190843344Y-87707684D01*
X190694123Y-87615643D01*
X190694118Y-87615641D01*
X190527696Y-87560494D01*
X190527689Y-87560493D01*
X190424985Y-87550000D01*
X190000000Y-87550000D01*
X190000000Y-88512500D01*
X189500000Y-88512500D01*
X189500000Y-87550000D01*
X189075014Y-87550000D01*
X188972310Y-87560493D01*
X188972303Y-87560494D01*
X188805881Y-87615641D01*
X188805876Y-87615643D01*
X188656655Y-87707684D01*
X188532684Y-87831655D01*
X188440643Y-87980876D01*
X188440641Y-87980881D01*
X188385494Y-88147303D01*
X188385493Y-88147310D01*
X188375000Y-88250014D01*
X187599249Y-88250014D01*
X186334574Y-86985339D01*
X186301089Y-86924016D01*
X186300638Y-86921849D01*
X186282419Y-86830261D01*
X186269737Y-86766503D01*
X186269735Y-86766498D01*
X186209397Y-86620827D01*
X186209390Y-86620814D01*
X186121789Y-86489711D01*
X186121786Y-86489707D01*
X186010292Y-86378213D01*
X186010288Y-86378210D01*
X185879185Y-86290609D01*
X185879172Y-86290602D01*
X185733501Y-86230264D01*
X185733491Y-86230261D01*
X185578149Y-86199361D01*
X185561392Y-86190595D01*
X185542914Y-86186576D01*
X185517877Y-86167833D01*
X185516238Y-86166976D01*
X185514660Y-86165425D01*
X185461416Y-86112181D01*
X185427931Y-86050858D01*
X185432915Y-85981166D01*
X185474787Y-85925233D01*
X185540251Y-85900816D01*
X185549097Y-85900500D01*
X196375500Y-85900500D01*
X196442539Y-85920185D01*
G37*
%TD.AperFunction*%
%TA.AperFunction,Conductor*%
G36*
X177855885Y-85920185D02*
G01*
X177901640Y-85972989D01*
X177911584Y-86042147D01*
X177882559Y-86105703D01*
X177876527Y-86112181D01*
X177223282Y-86765425D01*
X177161959Y-86798910D01*
X177159793Y-86799361D01*
X177004451Y-86830261D01*
X177004441Y-86830264D01*
X176858770Y-86890602D01*
X176858757Y-86890609D01*
X176727654Y-86978210D01*
X176727650Y-86978213D01*
X176616156Y-87089707D01*
X176616153Y-87089711D01*
X176528552Y-87220814D01*
X176528545Y-87220827D01*
X176468207Y-87366498D01*
X176468204Y-87366510D01*
X176437443Y-87521153D01*
X176437443Y-87678846D01*
X176468204Y-87833489D01*
X176468207Y-87833501D01*
X176528545Y-87979172D01*
X176528552Y-87979185D01*
X176603993Y-88092090D01*
X176624871Y-88158768D01*
X176606386Y-88226148D01*
X176588572Y-88248662D01*
X175631286Y-89205949D01*
X175519481Y-89317753D01*
X175519480Y-89317755D01*
X175486719Y-89374499D01*
X175440423Y-89454686D01*
X175399499Y-89607414D01*
X175399499Y-89607416D01*
X175399499Y-89775517D01*
X175399500Y-89775530D01*
X175399500Y-91360046D01*
X175379815Y-91427085D01*
X175327011Y-91472840D01*
X175257853Y-91482784D01*
X175194297Y-91453759D01*
X175187819Y-91447727D01*
X175182544Y-91442452D01*
X175067335Y-91356206D01*
X175067328Y-91356202D01*
X174932486Y-91305910D01*
X174932485Y-91305909D01*
X174932483Y-91305909D01*
X174872873Y-91299500D01*
X174872863Y-91299500D01*
X174127129Y-91299500D01*
X174127123Y-91299501D01*
X174067516Y-91305908D01*
X173932671Y-91356202D01*
X173932664Y-91356206D01*
X173817455Y-91442452D01*
X173817452Y-91442455D01*
X173731206Y-91557664D01*
X173731202Y-91557671D01*
X173680908Y-91692517D01*
X173674501Y-91752116D01*
X173674501Y-91752123D01*
X173674500Y-91752135D01*
X173674500Y-92897870D01*
X173674501Y-92897876D01*
X173680908Y-92957483D01*
X173731202Y-93092328D01*
X173731206Y-93092335D01*
X173775266Y-93151191D01*
X173799684Y-93216655D01*
X173784833Y-93284928D01*
X173735428Y-93334334D01*
X173676000Y-93349502D01*
X173174000Y-93349502D01*
X173106961Y-93329817D01*
X173061206Y-93277013D01*
X173051262Y-93207855D01*
X173074734Y-93151191D01*
X173118793Y-93092335D01*
X173118792Y-93092335D01*
X173118796Y-93092331D01*
X173169091Y-92957483D01*
X173175500Y-92897873D01*
X173175499Y-91752128D01*
X173169091Y-91692517D01*
X173118796Y-91557669D01*
X173118795Y-91557668D01*
X173118793Y-91557664D01*
X173032547Y-91442455D01*
X173032544Y-91442452D01*
X172917335Y-91356206D01*
X172917328Y-91356202D01*
X172782486Y-91305910D01*
X172782485Y-91305909D01*
X172782483Y-91305909D01*
X172722873Y-91299500D01*
X172722863Y-91299500D01*
X171977129Y-91299500D01*
X171977123Y-91299501D01*
X171917516Y-91305908D01*
X171782671Y-91356202D01*
X171782664Y-91356206D01*
X171667455Y-91442452D01*
X171667452Y-91442455D01*
X171581206Y-91557664D01*
X171581202Y-91557671D01*
X171530908Y-91692517D01*
X171524501Y-91752116D01*
X171524501Y-91752123D01*
X171524500Y-91752135D01*
X171524500Y-92863403D01*
X171504815Y-92930442D01*
X171452011Y-92976197D01*
X171382853Y-92986141D01*
X171319297Y-92957116D01*
X171312819Y-92951084D01*
X170911819Y-92550084D01*
X170878334Y-92488761D01*
X170875500Y-92462403D01*
X170875500Y-91474997D01*
X170875499Y-91474984D01*
X170874698Y-91467147D01*
X170864999Y-91372203D01*
X170809814Y-91205666D01*
X170774949Y-91149142D01*
X170717713Y-91056348D01*
X170717710Y-91056344D01*
X170593655Y-90932289D01*
X170593651Y-90932286D01*
X170444337Y-90840187D01*
X170444335Y-90840186D01*
X170330427Y-90802441D01*
X170277797Y-90785001D01*
X170277795Y-90785000D01*
X170175015Y-90774500D01*
X170175008Y-90774500D01*
X168824992Y-90774500D01*
X168824984Y-90774500D01*
X168722204Y-90785000D01*
X168722200Y-90785001D01*
X168663503Y-90804452D01*
X168593675Y-90806854D01*
X168533633Y-90771122D01*
X168502441Y-90708601D01*
X168500500Y-90686746D01*
X168500500Y-90312727D01*
X168520185Y-90245688D01*
X168572989Y-90199933D01*
X168642147Y-90189989D01*
X168663504Y-90195021D01*
X168722303Y-90214505D01*
X168722310Y-90214506D01*
X168825014Y-90224999D01*
X168825027Y-90225000D01*
X169250000Y-90225000D01*
X169750000Y-90225000D01*
X170174973Y-90225000D01*
X170174985Y-90224999D01*
X170277689Y-90214506D01*
X170277696Y-90214505D01*
X170444118Y-90159358D01*
X170444123Y-90159356D01*
X170593344Y-90067315D01*
X170717315Y-89943344D01*
X170809356Y-89794123D01*
X170809358Y-89794118D01*
X170864505Y-89627696D01*
X170864506Y-89627689D01*
X170874999Y-89524985D01*
X170875000Y-89524972D01*
X170875000Y-89262500D01*
X169750000Y-89262500D01*
X169750000Y-90225000D01*
X169250000Y-90225000D01*
X169250000Y-88762500D01*
X169750000Y-88762500D01*
X170875000Y-88762500D01*
X170875000Y-88500027D01*
X170874999Y-88500014D01*
X170864506Y-88397310D01*
X170864505Y-88397303D01*
X170809358Y-88230881D01*
X170809356Y-88230876D01*
X170717315Y-88081655D01*
X170593344Y-87957684D01*
X170444123Y-87865643D01*
X170444118Y-87865641D01*
X170277696Y-87810494D01*
X170277689Y-87810493D01*
X170174985Y-87800000D01*
X169750000Y-87800000D01*
X169750000Y-88762500D01*
X169250000Y-88762500D01*
X169250000Y-87800000D01*
X168825014Y-87800000D01*
X168722310Y-87810493D01*
X168722303Y-87810494D01*
X168663504Y-87829979D01*
X168635039Y-87830958D01*
X168606853Y-87835011D01*
X168600574Y-87832143D01*
X168593675Y-87832381D01*
X168569201Y-87817816D01*
X168543297Y-87805986D01*
X168539564Y-87800178D01*
X168533634Y-87796649D01*
X168520920Y-87771167D01*
X168505523Y-87747208D01*
X168504128Y-87737510D01*
X168502441Y-87734128D01*
X168500500Y-87712273D01*
X168500500Y-87602135D01*
X171524500Y-87602135D01*
X171524500Y-88747870D01*
X171524501Y-88747876D01*
X171530908Y-88807483D01*
X171581202Y-88942328D01*
X171581206Y-88942335D01*
X171667452Y-89057544D01*
X171667455Y-89057547D01*
X171782664Y-89143793D01*
X171782671Y-89143797D01*
X171816151Y-89156284D01*
X171917517Y-89194091D01*
X171977127Y-89200500D01*
X172295393Y-89200499D01*
X172342845Y-89209938D01*
X172366498Y-89219735D01*
X172366503Y-89219737D01*
X172521153Y-89250499D01*
X172521156Y-89250500D01*
X172521158Y-89250500D01*
X172678844Y-89250500D01*
X172678845Y-89250499D01*
X172833497Y-89219737D01*
X172979179Y-89159394D01*
X173110289Y-89071789D01*
X173221789Y-88960289D01*
X173309394Y-88829179D01*
X173369737Y-88683497D01*
X173400500Y-88528842D01*
X173400500Y-88371158D01*
X173400500Y-88371155D01*
X173400499Y-88371153D01*
X173380949Y-88272871D01*
X173369737Y-88216503D01*
X173345823Y-88158768D01*
X173309397Y-88070827D01*
X173309390Y-88070814D01*
X173221789Y-87939711D01*
X173221786Y-87939707D01*
X173211818Y-87929739D01*
X173197114Y-87902811D01*
X173180522Y-87876993D01*
X173179630Y-87870792D01*
X173178333Y-87868416D01*
X173175499Y-87842058D01*
X173175499Y-87602135D01*
X173674500Y-87602135D01*
X173674500Y-88747870D01*
X173674501Y-88747876D01*
X173680908Y-88807483D01*
X173731202Y-88942328D01*
X173731206Y-88942335D01*
X173817452Y-89057544D01*
X173817455Y-89057547D01*
X173932664Y-89143793D01*
X173932671Y-89143797D01*
X173966151Y-89156284D01*
X174067517Y-89194091D01*
X174127127Y-89200500D01*
X174872872Y-89200499D01*
X174932483Y-89194091D01*
X175067331Y-89143796D01*
X175182546Y-89057546D01*
X175268796Y-88942331D01*
X175319091Y-88807483D01*
X175325500Y-88747873D01*
X175325499Y-87602128D01*
X175319091Y-87542517D01*
X175316444Y-87535421D01*
X175268797Y-87407671D01*
X175268793Y-87407664D01*
X175182547Y-87292455D01*
X175182544Y-87292452D01*
X175067335Y-87206206D01*
X175067328Y-87206202D01*
X174932486Y-87155910D01*
X174932485Y-87155909D01*
X174932483Y-87155909D01*
X174872873Y-87149500D01*
X174872863Y-87149500D01*
X174127129Y-87149500D01*
X174127123Y-87149501D01*
X174067516Y-87155908D01*
X173932671Y-87206202D01*
X173932664Y-87206206D01*
X173817455Y-87292452D01*
X173817452Y-87292455D01*
X173731206Y-87407664D01*
X173731202Y-87407671D01*
X173680908Y-87542517D01*
X173674501Y-87602116D01*
X173674501Y-87602123D01*
X173674500Y-87602135D01*
X173175499Y-87602135D01*
X173175499Y-87602130D01*
X173175498Y-87602122D01*
X173175497Y-87602116D01*
X173169091Y-87542517D01*
X173166444Y-87535421D01*
X173118797Y-87407671D01*
X173118793Y-87407664D01*
X173032547Y-87292455D01*
X173032544Y-87292452D01*
X172917335Y-87206206D01*
X172917328Y-87206202D01*
X172782486Y-87155910D01*
X172782485Y-87155909D01*
X172782483Y-87155909D01*
X172722873Y-87149500D01*
X172722863Y-87149500D01*
X171977129Y-87149500D01*
X171977123Y-87149501D01*
X171917516Y-87155908D01*
X171782671Y-87206202D01*
X171782664Y-87206206D01*
X171667455Y-87292452D01*
X171667452Y-87292455D01*
X171581206Y-87407664D01*
X171581202Y-87407671D01*
X171530908Y-87542517D01*
X171524501Y-87602116D01*
X171524501Y-87602123D01*
X171524500Y-87602135D01*
X168500500Y-87602135D01*
X168500500Y-86024500D01*
X168520185Y-85957461D01*
X168572989Y-85911706D01*
X168624500Y-85900500D01*
X177788846Y-85900500D01*
X177855885Y-85920185D01*
G37*
%TD.AperFunction*%
%TA.AperFunction,Conductor*%
G36*
X185530702Y-87880383D02*
G01*
X185537180Y-87886415D01*
X187563584Y-89912819D01*
X187597069Y-89974142D01*
X187592085Y-90043834D01*
X187550213Y-90099767D01*
X187484749Y-90124184D01*
X187475903Y-90124500D01*
X185200098Y-90124500D01*
X185133059Y-90104815D01*
X185112417Y-90088181D01*
X184436416Y-89412180D01*
X184402931Y-89350857D01*
X184407915Y-89281165D01*
X184449787Y-89225232D01*
X184515251Y-89200815D01*
X184524097Y-89200499D01*
X184872871Y-89200499D01*
X184872872Y-89200499D01*
X184932483Y-89194091D01*
X185067331Y-89143796D01*
X185182546Y-89057546D01*
X185268796Y-88942331D01*
X185319091Y-88807483D01*
X185325500Y-88747873D01*
X185325499Y-87974095D01*
X185345183Y-87907057D01*
X185397987Y-87861302D01*
X185467146Y-87851358D01*
X185530702Y-87880383D01*
G37*
%TD.AperFunction*%
%TD*%
M02*
