%TF.GenerationSoftware,KiCad,Pcbnew,10.0.4*%
%TF.CreationDate,2026-08-24T20:04:25+02:00*%
%TF.ProjectId,btns,62746e73-2e6b-4696-9361-645f70636258,rev?*%
%TF.SameCoordinates,Original*%
%TF.FileFunction,Copper,L3,Inr*%
%TF.FilePolarity,Positive*%
%FSLAX46Y46*%
G04 Gerber Fmt 4.6, Leading zero omitted, Abs format (unit mm)*
G04 Created by KiCad (PCBNEW 10.0.4) date 2026-08-24 20:04:25*
%MOMM*%
%LPD*%
G01*
G04 APERTURE LIST*
%TA.AperFunction,ViaPad*%
%ADD10C,0.600000*%
%TD*%
G04 APERTURE END LIST*
D10*
%TO.N,Net-(D3-A)*%
X183175001Y-87768978D03*
%TO.N,BTNS*%
X181000000Y-90000000D03*
X194575000Y-92325000D03*
%TO.N,GND*%
X194500000Y-87000000D03*
%TO.N,3.3V*%
X185500000Y-87000000D03*
%TO.N,Net-(R10-Pad2)*%
X182350000Y-92350000D03*
%TO.N,Net-(R10-Pad1)*%
X172350000Y-92325000D03*
%TO.N,GND*%
X178767499Y-87767501D03*
%TO.N,BTNS*%
X172600000Y-88450000D03*
%TO.N,Net-(D4-A)*%
X185500000Y-92305000D03*
%TO.N,Net-(D2-A)*%
X180500000Y-93000000D03*
%TO.N,3.3V*%
X179311216Y-90525002D03*
X194424357Y-88351021D03*
%TO.N,GND*%
X187000000Y-90000000D03*
X189750000Y-88762500D03*
X169500000Y-89000000D03*
X174500000Y-93350002D03*
%TD*%
%TA.AperFunction,Conductor*%
%TO.N,GND*%
G36*
X196442539Y-85920185D02*
G01*
X196488294Y-85972989D01*
X196499500Y-86024500D01*
X196499500Y-94025500D01*
X196479815Y-94092539D01*
X196427011Y-94138294D01*
X196375500Y-94149500D01*
X168624500Y-94149500D01*
X168557461Y-94129815D01*
X168511706Y-94077011D01*
X168500500Y-94025500D01*
X168500500Y-92246153D01*
X171549500Y-92246153D01*
X171549500Y-92403846D01*
X171580261Y-92558489D01*
X171580264Y-92558501D01*
X171640602Y-92704172D01*
X171640609Y-92704185D01*
X171728210Y-92835288D01*
X171728213Y-92835292D01*
X171839707Y-92946786D01*
X171839711Y-92946789D01*
X171970814Y-93034390D01*
X171970827Y-93034397D01*
X172078138Y-93078846D01*
X172116503Y-93094737D01*
X172242176Y-93119735D01*
X172271153Y-93125499D01*
X172271156Y-93125500D01*
X172271158Y-93125500D01*
X172428844Y-93125500D01*
X172428845Y-93125499D01*
X172583497Y-93094737D01*
X172729179Y-93034394D01*
X172860289Y-92946789D01*
X172885925Y-92921153D01*
X179699500Y-92921153D01*
X179699500Y-93078846D01*
X179730261Y-93233489D01*
X179730264Y-93233501D01*
X179790602Y-93379172D01*
X179790609Y-93379185D01*
X179878210Y-93510288D01*
X179878213Y-93510292D01*
X179989707Y-93621786D01*
X179989711Y-93621789D01*
X180120814Y-93709390D01*
X180120827Y-93709397D01*
X180266498Y-93769735D01*
X180266503Y-93769737D01*
X180421153Y-93800499D01*
X180421156Y-93800500D01*
X180421158Y-93800500D01*
X180578844Y-93800500D01*
X180578845Y-93800499D01*
X180733497Y-93769737D01*
X180879179Y-93709394D01*
X181010289Y-93621789D01*
X181121789Y-93510289D01*
X181209394Y-93379179D01*
X181269737Y-93233497D01*
X181300500Y-93078842D01*
X181300500Y-92921158D01*
X181300500Y-92921155D01*
X181300499Y-92921153D01*
X181269738Y-92766510D01*
X181269737Y-92766503D01*
X181269735Y-92766498D01*
X181209397Y-92620827D01*
X181209390Y-92620814D01*
X181121789Y-92489711D01*
X181121786Y-92489707D01*
X181010289Y-92378210D01*
X180995259Y-92368168D01*
X180879185Y-92290609D01*
X180879172Y-92290602D01*
X180832217Y-92271153D01*
X181549500Y-92271153D01*
X181549500Y-92428846D01*
X181580261Y-92583489D01*
X181580264Y-92583501D01*
X181640602Y-92729172D01*
X181640609Y-92729185D01*
X181728210Y-92860288D01*
X181728213Y-92860292D01*
X181839707Y-92971786D01*
X181839711Y-92971789D01*
X181970814Y-93059390D01*
X181970827Y-93059397D01*
X182116498Y-93119735D01*
X182116503Y-93119737D01*
X182271153Y-93150499D01*
X182271156Y-93150500D01*
X182271158Y-93150500D01*
X182428844Y-93150500D01*
X182428845Y-93150499D01*
X182583497Y-93119737D01*
X182729179Y-93059394D01*
X182860289Y-92971789D01*
X182971789Y-92860289D01*
X183059394Y-92729179D01*
X183119737Y-92583497D01*
X183150500Y-92428842D01*
X183150500Y-92271158D01*
X183145149Y-92244256D01*
X183145149Y-92244253D01*
X183141549Y-92226153D01*
X184699500Y-92226153D01*
X184699500Y-92383846D01*
X184730261Y-92538489D01*
X184730264Y-92538501D01*
X184790602Y-92684172D01*
X184790609Y-92684185D01*
X184878210Y-92815288D01*
X184878213Y-92815292D01*
X184989707Y-92926786D01*
X184989711Y-92926789D01*
X185120814Y-93014390D01*
X185120827Y-93014397D01*
X185266498Y-93074735D01*
X185266503Y-93074737D01*
X185421153Y-93105499D01*
X185421156Y-93105500D01*
X185421158Y-93105500D01*
X185578844Y-93105500D01*
X185578845Y-93105499D01*
X185733497Y-93074737D01*
X185879179Y-93014394D01*
X186010289Y-92926789D01*
X186121789Y-92815289D01*
X186209394Y-92684179D01*
X186269737Y-92538497D01*
X186300500Y-92383842D01*
X186300500Y-92246153D01*
X193774500Y-92246153D01*
X193774500Y-92403846D01*
X193805261Y-92558489D01*
X193805264Y-92558501D01*
X193865602Y-92704172D01*
X193865609Y-92704185D01*
X193953210Y-92835288D01*
X193953213Y-92835292D01*
X194064707Y-92946786D01*
X194064711Y-92946789D01*
X194195814Y-93034390D01*
X194195827Y-93034397D01*
X194303138Y-93078846D01*
X194341503Y-93094737D01*
X194467176Y-93119735D01*
X194496153Y-93125499D01*
X194496156Y-93125500D01*
X194496158Y-93125500D01*
X194653844Y-93125500D01*
X194653845Y-93125499D01*
X194808497Y-93094737D01*
X194954179Y-93034394D01*
X195085289Y-92946789D01*
X195196789Y-92835289D01*
X195284394Y-92704179D01*
X195344737Y-92558497D01*
X195375500Y-92403842D01*
X195375500Y-92246158D01*
X195375500Y-92246155D01*
X195375499Y-92246153D01*
X195344738Y-92091510D01*
X195344737Y-92091503D01*
X195294752Y-91970827D01*
X195284397Y-91945827D01*
X195284390Y-91945814D01*
X195196789Y-91814711D01*
X195196786Y-91814707D01*
X195085292Y-91703213D01*
X195085288Y-91703210D01*
X194954185Y-91615609D01*
X194954172Y-91615602D01*
X194808501Y-91555264D01*
X194808489Y-91555261D01*
X194653845Y-91524500D01*
X194653842Y-91524500D01*
X194496158Y-91524500D01*
X194496155Y-91524500D01*
X194341510Y-91555261D01*
X194341498Y-91555264D01*
X194195827Y-91615602D01*
X194195814Y-91615609D01*
X194064711Y-91703210D01*
X194064707Y-91703213D01*
X193953213Y-91814707D01*
X193953210Y-91814711D01*
X193865609Y-91945814D01*
X193865602Y-91945827D01*
X193805264Y-92091498D01*
X193805261Y-92091510D01*
X193774500Y-92246153D01*
X186300500Y-92246153D01*
X186300500Y-92226158D01*
X186300500Y-92226155D01*
X186300499Y-92226153D01*
X186295197Y-92199500D01*
X186269737Y-92071503D01*
X186228036Y-91970827D01*
X186209397Y-91925827D01*
X186209390Y-91925814D01*
X186121789Y-91794711D01*
X186121786Y-91794707D01*
X186010292Y-91683213D01*
X186010288Y-91683210D01*
X185879185Y-91595609D01*
X185879172Y-91595602D01*
X185733501Y-91535264D01*
X185733489Y-91535261D01*
X185578845Y-91504500D01*
X185578842Y-91504500D01*
X185421158Y-91504500D01*
X185421155Y-91504500D01*
X185266510Y-91535261D01*
X185266498Y-91535264D01*
X185120827Y-91595602D01*
X185120814Y-91595609D01*
X184989711Y-91683210D01*
X184989707Y-91683213D01*
X184878213Y-91794707D01*
X184878210Y-91794711D01*
X184790609Y-91925814D01*
X184790602Y-91925827D01*
X184730264Y-92071498D01*
X184730261Y-92071510D01*
X184699500Y-92226153D01*
X183141549Y-92226153D01*
X183119738Y-92116508D01*
X183119737Y-92116507D01*
X183119737Y-92116503D01*
X183109380Y-92091498D01*
X183059397Y-91970827D01*
X183059390Y-91970814D01*
X182971789Y-91839711D01*
X182971786Y-91839707D01*
X182860292Y-91728213D01*
X182860288Y-91728210D01*
X182729185Y-91640609D01*
X182729172Y-91640602D01*
X182583501Y-91580264D01*
X182583489Y-91580261D01*
X182428845Y-91549500D01*
X182428842Y-91549500D01*
X182271158Y-91549500D01*
X182271155Y-91549500D01*
X182116510Y-91580261D01*
X182116498Y-91580264D01*
X181970827Y-91640602D01*
X181970814Y-91640609D01*
X181839711Y-91728210D01*
X181839707Y-91728213D01*
X181728213Y-91839707D01*
X181728210Y-91839711D01*
X181640609Y-91970814D01*
X181640602Y-91970827D01*
X181580264Y-92116498D01*
X181580261Y-92116510D01*
X181549500Y-92271153D01*
X180832217Y-92271153D01*
X180733501Y-92230264D01*
X180733489Y-92230261D01*
X180578845Y-92199500D01*
X180578842Y-92199500D01*
X180421158Y-92199500D01*
X180421155Y-92199500D01*
X180266510Y-92230261D01*
X180266498Y-92230264D01*
X180120827Y-92290602D01*
X180120814Y-92290609D01*
X179989711Y-92378210D01*
X179989707Y-92378213D01*
X179878213Y-92489707D01*
X179878210Y-92489711D01*
X179790609Y-92620814D01*
X179790602Y-92620827D01*
X179730264Y-92766498D01*
X179730261Y-92766510D01*
X179699500Y-92921153D01*
X172885925Y-92921153D01*
X172971789Y-92835289D01*
X173059394Y-92704179D01*
X173119737Y-92558497D01*
X173150500Y-92403842D01*
X173150500Y-92246158D01*
X173150500Y-92246155D01*
X173150499Y-92246153D01*
X173119738Y-92091510D01*
X173119737Y-92091503D01*
X173069752Y-91970827D01*
X173059397Y-91945827D01*
X173059390Y-91945814D01*
X172971789Y-91814711D01*
X172971786Y-91814707D01*
X172860292Y-91703213D01*
X172860288Y-91703210D01*
X172729185Y-91615609D01*
X172729172Y-91615602D01*
X172583501Y-91555264D01*
X172583489Y-91555261D01*
X172428845Y-91524500D01*
X172428842Y-91524500D01*
X172271158Y-91524500D01*
X172271155Y-91524500D01*
X172116510Y-91555261D01*
X172116498Y-91555264D01*
X171970827Y-91615602D01*
X171970814Y-91615609D01*
X171839711Y-91703210D01*
X171839707Y-91703213D01*
X171728213Y-91814707D01*
X171728210Y-91814711D01*
X171640609Y-91945814D01*
X171640602Y-91945827D01*
X171580264Y-92091498D01*
X171580261Y-92091510D01*
X171549500Y-92246153D01*
X168500500Y-92246153D01*
X168500500Y-90446155D01*
X178510716Y-90446155D01*
X178510716Y-90603848D01*
X178541477Y-90758491D01*
X178541480Y-90758503D01*
X178601818Y-90904174D01*
X178601825Y-90904187D01*
X178689426Y-91035290D01*
X178689429Y-91035294D01*
X178800923Y-91146788D01*
X178800927Y-91146791D01*
X178932030Y-91234392D01*
X178932043Y-91234399D01*
X179077714Y-91294737D01*
X179077719Y-91294739D01*
X179232369Y-91325501D01*
X179232372Y-91325502D01*
X179232374Y-91325502D01*
X179390060Y-91325502D01*
X179390061Y-91325501D01*
X179544713Y-91294739D01*
X179690395Y-91234396D01*
X179821505Y-91146791D01*
X179933005Y-91035291D01*
X180020610Y-90904181D01*
X180080953Y-90758499D01*
X180111716Y-90603844D01*
X180111716Y-90520225D01*
X180131401Y-90453186D01*
X180184205Y-90407431D01*
X180253363Y-90397487D01*
X180316919Y-90426512D01*
X180338818Y-90451334D01*
X180378210Y-90510288D01*
X180378213Y-90510292D01*
X180489707Y-90621786D01*
X180489711Y-90621789D01*
X180620814Y-90709390D01*
X180620827Y-90709397D01*
X180766498Y-90769735D01*
X180766503Y-90769737D01*
X180921153Y-90800499D01*
X180921156Y-90800500D01*
X180921158Y-90800500D01*
X181078844Y-90800500D01*
X181078845Y-90800499D01*
X181233497Y-90769737D01*
X181379179Y-90709394D01*
X181510289Y-90621789D01*
X181621789Y-90510289D01*
X181709394Y-90379179D01*
X181769737Y-90233497D01*
X181800500Y-90078842D01*
X181800500Y-89921158D01*
X181800500Y-89921155D01*
X181800499Y-89921153D01*
X181779505Y-89815611D01*
X181769737Y-89766503D01*
X181752340Y-89724502D01*
X181709397Y-89620827D01*
X181709390Y-89620814D01*
X181621789Y-89489711D01*
X181621786Y-89489707D01*
X181510292Y-89378213D01*
X181510288Y-89378210D01*
X181379185Y-89290609D01*
X181379172Y-89290602D01*
X181233501Y-89230264D01*
X181233489Y-89230261D01*
X181078845Y-89199500D01*
X181078842Y-89199500D01*
X180921158Y-89199500D01*
X180921155Y-89199500D01*
X180766510Y-89230261D01*
X180766498Y-89230264D01*
X180620827Y-89290602D01*
X180620814Y-89290609D01*
X180489711Y-89378210D01*
X180489707Y-89378213D01*
X180378213Y-89489707D01*
X180378210Y-89489711D01*
X180290609Y-89620814D01*
X180290602Y-89620827D01*
X180230264Y-89766498D01*
X180230261Y-89766510D01*
X180199500Y-89921153D01*
X180199500Y-90004777D01*
X180179815Y-90071816D01*
X180127011Y-90117571D01*
X180057853Y-90127515D01*
X179994297Y-90098490D01*
X179972398Y-90073668D01*
X179933005Y-90014713D01*
X179933002Y-90014709D01*
X179821508Y-89903215D01*
X179821504Y-89903212D01*
X179690401Y-89815611D01*
X179690388Y-89815604D01*
X179544717Y-89755266D01*
X179544705Y-89755263D01*
X179390061Y-89724502D01*
X179390058Y-89724502D01*
X179232374Y-89724502D01*
X179232371Y-89724502D01*
X179077726Y-89755263D01*
X179077714Y-89755266D01*
X178932043Y-89815604D01*
X178932030Y-89815611D01*
X178800927Y-89903212D01*
X178800923Y-89903215D01*
X178689429Y-90014709D01*
X178689426Y-90014713D01*
X178601825Y-90145816D01*
X178601818Y-90145829D01*
X178541480Y-90291500D01*
X178541477Y-90291512D01*
X178510716Y-90446155D01*
X168500500Y-90446155D01*
X168500500Y-88371153D01*
X171799500Y-88371153D01*
X171799500Y-88528846D01*
X171830261Y-88683489D01*
X171830264Y-88683501D01*
X171890602Y-88829172D01*
X171890609Y-88829185D01*
X171978210Y-88960288D01*
X171978213Y-88960292D01*
X172089707Y-89071786D01*
X172089711Y-89071789D01*
X172220814Y-89159390D01*
X172220827Y-89159397D01*
X172317646Y-89199500D01*
X172366503Y-89219737D01*
X172521153Y-89250499D01*
X172521156Y-89250500D01*
X172521158Y-89250500D01*
X172678844Y-89250500D01*
X172678845Y-89250499D01*
X172833497Y-89219737D01*
X172979179Y-89159394D01*
X173110289Y-89071789D01*
X173221789Y-88960289D01*
X173309394Y-88829179D01*
X173369737Y-88683497D01*
X173400500Y-88528842D01*
X173400500Y-88371158D01*
X173400500Y-88371155D01*
X173400499Y-88371153D01*
X173382222Y-88279270D01*
X173369737Y-88216503D01*
X173341430Y-88148163D01*
X173309397Y-88070827D01*
X173309390Y-88070814D01*
X173221789Y-87939711D01*
X173221786Y-87939707D01*
X173110292Y-87828213D01*
X173110288Y-87828210D01*
X173048832Y-87787146D01*
X172979185Y-87740609D01*
X172979172Y-87740602D01*
X172857322Y-87690131D01*
X182374501Y-87690131D01*
X182374501Y-87847824D01*
X182405262Y-88002467D01*
X182405265Y-88002479D01*
X182465603Y-88148150D01*
X182465610Y-88148163D01*
X182553211Y-88279266D01*
X182553214Y-88279270D01*
X182664708Y-88390764D01*
X182664712Y-88390767D01*
X182795815Y-88478368D01*
X182795828Y-88478375D01*
X182917668Y-88528842D01*
X182941504Y-88538715D01*
X183096154Y-88569477D01*
X183096157Y-88569478D01*
X183096159Y-88569478D01*
X183253845Y-88569478D01*
X183253846Y-88569477D01*
X183408498Y-88538715D01*
X183554180Y-88478372D01*
X183685290Y-88390767D01*
X183796790Y-88279267D01*
X183801529Y-88272174D01*
X193623857Y-88272174D01*
X193623857Y-88429867D01*
X193654618Y-88584510D01*
X193654621Y-88584522D01*
X193714959Y-88730193D01*
X193714966Y-88730206D01*
X193802567Y-88861309D01*
X193802570Y-88861313D01*
X193914064Y-88972807D01*
X193914068Y-88972810D01*
X194045171Y-89060411D01*
X194045184Y-89060418D01*
X194190855Y-89120756D01*
X194190860Y-89120758D01*
X194345510Y-89151520D01*
X194345513Y-89151521D01*
X194345515Y-89151521D01*
X194503201Y-89151521D01*
X194503202Y-89151520D01*
X194657854Y-89120758D01*
X194803536Y-89060415D01*
X194934646Y-88972810D01*
X195046146Y-88861310D01*
X195133751Y-88730200D01*
X195194094Y-88584518D01*
X195224857Y-88429863D01*
X195224857Y-88272179D01*
X195224857Y-88272176D01*
X195224856Y-88272174D01*
X195209942Y-88197196D01*
X195194094Y-88117524D01*
X195174746Y-88070814D01*
X195133754Y-87971848D01*
X195133747Y-87971835D01*
X195046146Y-87840732D01*
X195046143Y-87840728D01*
X194934649Y-87729234D01*
X194934645Y-87729231D01*
X194803542Y-87641630D01*
X194803529Y-87641623D01*
X194657858Y-87581285D01*
X194657846Y-87581282D01*
X194503202Y-87550521D01*
X194503199Y-87550521D01*
X194345515Y-87550521D01*
X194345512Y-87550521D01*
X194190867Y-87581282D01*
X194190855Y-87581285D01*
X194045184Y-87641623D01*
X194045171Y-87641630D01*
X193914068Y-87729231D01*
X193914064Y-87729234D01*
X193802570Y-87840728D01*
X193802567Y-87840732D01*
X193714966Y-87971835D01*
X193714959Y-87971848D01*
X193654621Y-88117519D01*
X193654618Y-88117531D01*
X193623857Y-88272174D01*
X183801529Y-88272174D01*
X183838731Y-88216498D01*
X183851629Y-88197196D01*
X183884391Y-88148163D01*
X183884391Y-88148162D01*
X183884395Y-88148157D01*
X183944738Y-88002475D01*
X183975501Y-87847820D01*
X183975501Y-87690136D01*
X183975501Y-87690133D01*
X183975500Y-87690131D01*
X183953848Y-87581282D01*
X183944738Y-87535481D01*
X183944736Y-87535476D01*
X183884398Y-87389805D01*
X183884391Y-87389792D01*
X183796790Y-87258689D01*
X183796787Y-87258685D01*
X183685293Y-87147191D01*
X183685289Y-87147188D01*
X183554186Y-87059587D01*
X183554173Y-87059580D01*
X183481858Y-87029627D01*
X183408502Y-86999242D01*
X183408490Y-86999239D01*
X183253846Y-86968478D01*
X183253843Y-86968478D01*
X183096159Y-86968478D01*
X183096156Y-86968478D01*
X182941511Y-86999239D01*
X182941499Y-86999242D01*
X182795828Y-87059580D01*
X182795815Y-87059587D01*
X182664712Y-87147188D01*
X182664708Y-87147191D01*
X182553214Y-87258685D01*
X182553211Y-87258689D01*
X182465610Y-87389792D01*
X182465603Y-87389805D01*
X182405265Y-87535476D01*
X182405262Y-87535488D01*
X182374501Y-87690131D01*
X172857322Y-87690131D01*
X172833501Y-87680264D01*
X172833489Y-87680261D01*
X172678845Y-87649500D01*
X172678842Y-87649500D01*
X172521158Y-87649500D01*
X172521155Y-87649500D01*
X172366510Y-87680261D01*
X172366498Y-87680264D01*
X172220827Y-87740602D01*
X172220814Y-87740609D01*
X172089711Y-87828210D01*
X172089707Y-87828213D01*
X171978213Y-87939707D01*
X171978210Y-87939711D01*
X171890609Y-88070814D01*
X171890602Y-88070827D01*
X171830264Y-88216498D01*
X171830261Y-88216510D01*
X171799500Y-88371153D01*
X168500500Y-88371153D01*
X168500500Y-86921153D01*
X184699500Y-86921153D01*
X184699500Y-87078846D01*
X184730261Y-87233489D01*
X184730264Y-87233501D01*
X184790602Y-87379172D01*
X184790609Y-87379185D01*
X184878210Y-87510288D01*
X184878213Y-87510292D01*
X184989707Y-87621786D01*
X184989711Y-87621789D01*
X185120814Y-87709390D01*
X185120827Y-87709397D01*
X185196181Y-87740609D01*
X185266503Y-87769737D01*
X185421153Y-87800499D01*
X185421156Y-87800500D01*
X185421158Y-87800500D01*
X185578844Y-87800500D01*
X185578845Y-87800499D01*
X185733497Y-87769737D01*
X185879179Y-87709394D01*
X186010289Y-87621789D01*
X186121789Y-87510289D01*
X186209394Y-87379179D01*
X186269737Y-87233497D01*
X186300500Y-87078842D01*
X186300500Y-86921158D01*
X186300500Y-86921155D01*
X186300499Y-86921153D01*
X186269738Y-86766510D01*
X186269737Y-86766503D01*
X186269735Y-86766498D01*
X186209397Y-86620827D01*
X186209390Y-86620814D01*
X186121789Y-86489711D01*
X186121786Y-86489707D01*
X186010292Y-86378213D01*
X186010288Y-86378210D01*
X185879185Y-86290609D01*
X185879172Y-86290602D01*
X185733501Y-86230264D01*
X185733489Y-86230261D01*
X185578845Y-86199500D01*
X185578842Y-86199500D01*
X185421158Y-86199500D01*
X185421155Y-86199500D01*
X185266510Y-86230261D01*
X185266498Y-86230264D01*
X185120827Y-86290602D01*
X185120814Y-86290609D01*
X184989711Y-86378210D01*
X184989707Y-86378213D01*
X184878213Y-86489707D01*
X184878210Y-86489711D01*
X184790609Y-86620814D01*
X184790602Y-86620827D01*
X184730264Y-86766498D01*
X184730261Y-86766510D01*
X184699500Y-86921153D01*
X168500500Y-86921153D01*
X168500500Y-86024500D01*
X168520185Y-85957461D01*
X168572989Y-85911706D01*
X168624500Y-85900500D01*
X196375500Y-85900500D01*
X196442539Y-85920185D01*
G37*
%TD.AperFunction*%
%TD*%
M02*
