%TF.GenerationSoftware,KiCad,Pcbnew,10.0.4*%
%TF.CreationDate,2026-08-24T20:17:02+02:00*%
%TF.ProjectId,btns,62746e73-2e6b-4696-9361-645f70636258,rev?*%
%TF.SameCoordinates,Original*%
%TF.FileFunction,Copper,L2,Bot*%
%TF.FilePolarity,Positive*%
%FSLAX46Y46*%
G04 Gerber Fmt 4.6, Leading zero omitted, Abs format (unit mm)*
G04 Created by KiCad (PCBNEW 10.0.4) date 2026-08-24 20:17:02*
%MOMM*%
%LPD*%
G01*
G04 APERTURE LIST*
G04 Aperture macros list*
%AMRoundRect*
0 Rectangle with rounded corners*
0 $1 Rounding radius*
0 $2 $3 $4 $5 $6 $7 $8 $9 X,Y pos of 4 corners*
0 Add a 4 corners polygon primitive as box body*
4,1,4,$2,$3,$4,$5,$6,$7,$8,$9,$2,$3,0*
0 Add four circle primitives for the rounded corners*
1,1,$1+$1,$2,$3*
1,1,$1+$1,$4,$5*
1,1,$1+$1,$6,$7*
1,1,$1+$1,$8,$9*
0 Add four rect primitives between the rounded corners*
20,1,$1+$1,$2,$3,$4,$5,0*
20,1,$1+$1,$4,$5,$6,$7,0*
20,1,$1+$1,$6,$7,$8,$9,0*
20,1,$1+$1,$8,$9,$2,$3,0*%
G04 Aperture macros list end*
%TA.AperFunction,SMDPad,CuDef*%
%ADD10RoundRect,0.250000X-0.350000X-0.450000X0.350000X-0.450000X0.350000X0.450000X-0.350000X0.450000X0*%
%TD*%
%TA.AperFunction,SMDPad,CuDef*%
%ADD11RoundRect,0.250000X0.350000X0.450000X-0.350000X0.450000X-0.350000X-0.450000X0.350000X-0.450000X0*%
%TD*%
%TA.AperFunction,SMDPad,CuDef*%
%ADD12RoundRect,0.175000X-0.175000X-1.675000X0.175000X-1.675000X0.175000X1.675000X-0.175000X1.675000X0*%
%TD*%
%TA.AperFunction,SMDPad,CuDef*%
%ADD13RoundRect,0.250001X-0.499999X-0.899999X0.499999X-0.899999X0.499999X0.899999X-0.499999X0.899999X0*%
%TD*%
%TA.AperFunction,ViaPad*%
%ADD14C,0.600000*%
%TD*%
%TA.AperFunction,Conductor*%
%ADD15C,0.200000*%
%TD*%
G04 APERTURE END LIST*
D10*
%TO.P,R11,1*%
%TO.N,Net-(R10-Pad2)*%
X183750000Y-86600000D03*
%TO.P,R11,2*%
%TO.N,3.3V*%
X185750000Y-86600000D03*
%TD*%
D11*
%TO.P,R12,1*%
%TO.N,GND*%
X194500000Y-87000000D03*
%TO.P,R12,2*%
%TO.N,BTNS*%
X192500000Y-87000000D03*
%TD*%
D10*
%TO.P,R10,1*%
%TO.N,Net-(R10-Pad1)*%
X172662500Y-87000000D03*
%TO.P,R10,2*%
%TO.N,Net-(R10-Pad2)*%
X174662500Y-87000000D03*
%TD*%
D12*
%TO.P,J12,1,Pin_1_1*%
%TO.N,3.3V*%
X179500000Y-90000000D03*
%TO.P,J12,2,Pin_2_2*%
%TO.N,BTNS*%
X181000000Y-90000000D03*
%TO.P,J12,3,Pin_3_3*%
%TO.N,Net-(D2-A)*%
X182500000Y-90000000D03*
%TO.P,J12,4,Pin_4_4*%
%TO.N,Net-(D3-A)*%
X184000000Y-90000000D03*
%TO.P,J12,5,Pin_5_5*%
%TO.N,Net-(D4-A)*%
X185500000Y-90000000D03*
%TO.P,J12,6,Pin_6_6*%
%TO.N,GND*%
X187000000Y-90000000D03*
D13*
%TO.P,J12,MP*%
%TO.N,N/C*%
X177450000Y-92100000D03*
X189050000Y-92100000D03*
%TD*%
D14*
%TO.N,GND*%
X177417500Y-89117500D03*
X176200000Y-88200000D03*
%TO.N,3.3V*%
X177237943Y-87600000D03*
%TO.N,Net-(D3-A)*%
X183175001Y-87768978D03*
%TO.N,BTNS*%
X181000000Y-90000000D03*
X194575000Y-92325000D03*
%TO.N,GND*%
X194500000Y-87000000D03*
%TO.N,3.3V*%
X185500000Y-87000000D03*
%TO.N,Net-(R10-Pad2)*%
X182350000Y-92350000D03*
%TO.N,Net-(R10-Pad1)*%
X172350000Y-92325000D03*
%TO.N,BTNS*%
X172600000Y-88450000D03*
%TO.N,Net-(D4-A)*%
X185500000Y-92305000D03*
%TO.N,Net-(D2-A)*%
X180500000Y-93000000D03*
%TO.N,3.3V*%
X179311216Y-90525002D03*
X194424357Y-88351021D03*
%TO.N,GND*%
X187000000Y-90000000D03*
X189750000Y-88762500D03*
X169500000Y-89000000D03*
%TD*%
%TO.N,GND*%
D15*
X177017500Y-89017500D02*
X176200000Y-88200000D01*
X177317500Y-89017500D02*
X177017500Y-89017500D01*
X177417500Y-89117500D02*
X177317500Y-89017500D01*
X169500000Y-90323529D02*
X169500000Y-89000000D01*
X173176471Y-94000000D02*
X169500000Y-90323529D01*
X187000000Y-91850000D02*
X184850000Y-94000000D01*
X184850000Y-94000000D02*
X173176471Y-94000000D01*
X187000000Y-90000000D02*
X187000000Y-91850000D01*
%TO.N,3.3V*%
X179311216Y-89673273D02*
X177237943Y-87600000D01*
X179311216Y-90525002D02*
X179311216Y-89673273D01*
%TO.N,GND*%
X191000000Y-86000000D02*
X187000000Y-90000000D01*
X193500000Y-86000000D02*
X191000000Y-86000000D01*
X194500000Y-87000000D02*
X193500000Y-86000000D01*
%TO.N,Net-(D3-A)*%
X183175001Y-89175001D02*
X183175001Y-87768978D01*
X184000000Y-90000000D02*
X183175001Y-89175001D01*
%TO.N,BTNS*%
X192500000Y-90250000D02*
X194575000Y-92325000D01*
X192500000Y-87000000D02*
X192500000Y-90250000D01*
%TO.N,3.3V*%
X185750000Y-87000000D02*
X185500000Y-87000000D01*
%TO.N,Net-(R10-Pad2)*%
X183801602Y-92725000D02*
X182725000Y-92725000D01*
X182725000Y-92725000D02*
X182350000Y-92350000D01*
X184650000Y-91876602D02*
X183801602Y-92725000D01*
X184650000Y-87900000D02*
X184650000Y-91876602D01*
X183750000Y-87000000D02*
X184650000Y-87900000D01*
X174662500Y-87000000D02*
X183600000Y-87000000D01*
%TO.N,Net-(R10-Pad1)*%
X172000000Y-87662500D02*
X172000000Y-91975000D01*
X172662500Y-87000000D02*
X172000000Y-87662500D01*
X172000000Y-91975000D02*
X172350000Y-92325000D01*
%TO.N,BTNS*%
X181350000Y-92998529D02*
X180748529Y-93600000D01*
X181350000Y-90350000D02*
X181350000Y-92998529D01*
X172600000Y-90100000D02*
X172600000Y-88450000D01*
X181000000Y-90000000D02*
X181350000Y-90350000D01*
X180748529Y-93600000D02*
X176100000Y-93600000D01*
X176100000Y-93600000D02*
X172600000Y-90100000D01*
%TO.N,Net-(D4-A)*%
X185500000Y-90000000D02*
X185500000Y-92305000D01*
%TO.N,Net-(R10-Pad2)*%
X184000000Y-87349998D02*
X184200000Y-87149998D01*
%TO.N,Net-(D3-A)*%
X183500000Y-90500000D02*
X183500000Y-92325000D01*
X184000000Y-90000000D02*
X183500000Y-90500000D01*
%TO.N,Net-(D2-A)*%
X180623398Y-87850000D02*
X181564102Y-87850000D01*
X180350000Y-92850000D02*
X180350000Y-88123398D01*
X181564102Y-87850000D02*
X182500000Y-88785898D01*
X182500000Y-88785898D02*
X182500000Y-90000000D01*
X180500000Y-93000000D02*
X180350000Y-92850000D01*
X180350000Y-88123398D02*
X180623398Y-87850000D01*
%TO.N,3.3V*%
X179500000Y-90336218D02*
X179311216Y-90525002D01*
X179500000Y-90000000D02*
X179500000Y-90336218D01*
%TD*%
%TA.AperFunction,Conductor*%
%TO.N,GND*%
G36*
X171676198Y-85920185D02*
G01*
X171721953Y-85972989D01*
X171731897Y-86042147D01*
X171714698Y-86089596D01*
X171627689Y-86230659D01*
X171627685Y-86230668D01*
X171627615Y-86230880D01*
X171572501Y-86397203D01*
X171572501Y-86397204D01*
X171572500Y-86397204D01*
X171562000Y-86499983D01*
X171562000Y-87199901D01*
X171542315Y-87266940D01*
X171542102Y-87267271D01*
X171534965Y-87278297D01*
X171519480Y-87293784D01*
X171475862Y-87369334D01*
X171474305Y-87372030D01*
X171474288Y-87372057D01*
X171440423Y-87430714D01*
X171440423Y-87430715D01*
X171399499Y-87583443D01*
X171399499Y-87583445D01*
X171399499Y-87751546D01*
X171399500Y-87751559D01*
X171399500Y-91888330D01*
X171399499Y-91888348D01*
X171399499Y-92054054D01*
X171399498Y-92054054D01*
X171399499Y-92054057D01*
X171440423Y-92206785D01*
X171462670Y-92245318D01*
X171519480Y-92343716D01*
X171526098Y-92350334D01*
X171533899Y-92363255D01*
X171539108Y-92383033D01*
X171548911Y-92400985D01*
X171549362Y-92403151D01*
X171580261Y-92558491D01*
X171580264Y-92558501D01*
X171640602Y-92704172D01*
X171640609Y-92704185D01*
X171728210Y-92835288D01*
X171728213Y-92835292D01*
X171839707Y-92946786D01*
X171839711Y-92946789D01*
X171970814Y-93034390D01*
X171970827Y-93034397D01*
X172089391Y-93083507D01*
X172116503Y-93094737D01*
X172242186Y-93119737D01*
X172271153Y-93125499D01*
X172271156Y-93125500D01*
X172271158Y-93125500D01*
X172428844Y-93125500D01*
X172428845Y-93125499D01*
X172583497Y-93094737D01*
X172729179Y-93034394D01*
X172860289Y-92946789D01*
X172971789Y-92835289D01*
X173059394Y-92704179D01*
X173119737Y-92558497D01*
X173150500Y-92403842D01*
X173150500Y-92246158D01*
X173150500Y-92246155D01*
X173150499Y-92246153D01*
X173146522Y-92226158D01*
X173119737Y-92091503D01*
X173111453Y-92071503D01*
X173059397Y-91945827D01*
X173059390Y-91945814D01*
X172971789Y-91814711D01*
X172971786Y-91814707D01*
X172860292Y-91703213D01*
X172860288Y-91703210D01*
X172729185Y-91615609D01*
X172729170Y-91615601D01*
X172677046Y-91594010D01*
X172622643Y-91550168D01*
X172600579Y-91483874D01*
X172600500Y-91479450D01*
X172600500Y-91249097D01*
X172620185Y-91182058D01*
X172672989Y-91136303D01*
X172742147Y-91126359D01*
X172805703Y-91155384D01*
X172812181Y-91161416D01*
X175588584Y-93937819D01*
X175622069Y-93999142D01*
X175617085Y-94068834D01*
X175575213Y-94124767D01*
X175509749Y-94149184D01*
X175500903Y-94149500D01*
X168624500Y-94149500D01*
X168557461Y-94129815D01*
X168511706Y-94077011D01*
X168500500Y-94025500D01*
X168500500Y-86024500D01*
X168520185Y-85957461D01*
X168572989Y-85911706D01*
X168624500Y-85900500D01*
X171609159Y-85900500D01*
X171676198Y-85920185D01*
G37*
%TD.AperFunction*%
%TA.AperFunction,Conductor*%
G36*
X191454234Y-85902724D02*
G01*
X191462030Y-85901456D01*
X191487284Y-85912429D01*
X191513698Y-85920185D01*
X191518868Y-85926152D01*
X191526113Y-85929300D01*
X191541427Y-85952186D01*
X191559453Y-85972989D01*
X191560576Y-85980803D01*
X191564969Y-85987368D01*
X191565478Y-86014897D01*
X191569397Y-86042147D01*
X191566149Y-86051105D01*
X191566263Y-86057226D01*
X191552198Y-86089596D01*
X191465189Y-86230659D01*
X191465185Y-86230668D01*
X191465115Y-86230880D01*
X191410001Y-86397203D01*
X191410001Y-86397204D01*
X191410000Y-86397204D01*
X191399500Y-86499983D01*
X191399500Y-87500001D01*
X191399501Y-87500019D01*
X191410000Y-87602796D01*
X191410001Y-87602799D01*
X191456177Y-87742147D01*
X191465186Y-87769334D01*
X191557288Y-87918656D01*
X191681344Y-88042712D01*
X191830666Y-88134814D01*
X191830667Y-88134814D01*
X191836813Y-88138605D01*
X191835706Y-88140399D01*
X191880337Y-88179687D01*
X191899500Y-88245908D01*
X191899500Y-90163330D01*
X191899499Y-90163348D01*
X191899499Y-90329054D01*
X191899498Y-90329054D01*
X191899499Y-90329057D01*
X191940423Y-90481785D01*
X191940424Y-90481787D01*
X191940423Y-90481787D01*
X191953986Y-90505277D01*
X191953987Y-90505279D01*
X192019475Y-90618709D01*
X192019481Y-90618717D01*
X192138349Y-90737585D01*
X192138355Y-90737590D01*
X193740425Y-92339660D01*
X193773910Y-92400983D01*
X193774361Y-92403149D01*
X193805261Y-92558491D01*
X193805264Y-92558501D01*
X193865602Y-92704172D01*
X193865609Y-92704185D01*
X193953210Y-92835288D01*
X193953213Y-92835292D01*
X194064707Y-92946786D01*
X194064711Y-92946789D01*
X194195814Y-93034390D01*
X194195827Y-93034397D01*
X194314391Y-93083507D01*
X194341503Y-93094737D01*
X194467186Y-93119737D01*
X194496153Y-93125499D01*
X194496156Y-93125500D01*
X194496158Y-93125500D01*
X194653844Y-93125500D01*
X194653845Y-93125499D01*
X194808497Y-93094737D01*
X194954179Y-93034394D01*
X195085289Y-92946789D01*
X195196789Y-92835289D01*
X195284394Y-92704179D01*
X195344737Y-92558497D01*
X195375500Y-92403842D01*
X195375500Y-92246158D01*
X195375500Y-92246155D01*
X195375499Y-92246153D01*
X195371522Y-92226158D01*
X195344737Y-92091503D01*
X195336453Y-92071503D01*
X195284397Y-91945827D01*
X195284390Y-91945814D01*
X195196789Y-91814711D01*
X195196786Y-91814707D01*
X195085292Y-91703213D01*
X195085288Y-91703210D01*
X194954185Y-91615609D01*
X194954172Y-91615602D01*
X194808501Y-91555264D01*
X194808491Y-91555261D01*
X194653149Y-91524361D01*
X194591238Y-91491976D01*
X194589660Y-91490425D01*
X193136819Y-90037584D01*
X193103334Y-89976261D01*
X193100500Y-89949903D01*
X193100500Y-88245908D01*
X193120185Y-88178869D01*
X193164271Y-88140363D01*
X193163187Y-88138605D01*
X193169332Y-88134814D01*
X193169334Y-88134814D01*
X193318656Y-88042712D01*
X193412675Y-87948692D01*
X193420618Y-87944355D01*
X193426043Y-87937109D01*
X193450799Y-87927875D01*
X193473994Y-87915210D01*
X193483024Y-87915855D01*
X193491507Y-87912692D01*
X193517327Y-87918308D01*
X193543686Y-87920194D01*
X193552739Y-87926012D01*
X193559780Y-87927544D01*
X193588034Y-87948695D01*
X193625979Y-87986640D01*
X193659464Y-88047963D01*
X193654937Y-88111261D01*
X193656387Y-88111701D01*
X193654617Y-88117532D01*
X193623857Y-88272174D01*
X193623857Y-88429867D01*
X193654618Y-88584510D01*
X193654621Y-88584522D01*
X193714959Y-88730193D01*
X193714966Y-88730206D01*
X193802567Y-88861309D01*
X193802570Y-88861313D01*
X193914064Y-88972807D01*
X193914068Y-88972810D01*
X194045171Y-89060411D01*
X194045184Y-89060418D01*
X194190855Y-89120756D01*
X194190860Y-89120758D01*
X194345510Y-89151520D01*
X194345513Y-89151521D01*
X194345515Y-89151521D01*
X194503201Y-89151521D01*
X194503202Y-89151520D01*
X194657854Y-89120758D01*
X194803536Y-89060415D01*
X194934646Y-88972810D01*
X195046146Y-88861310D01*
X195133751Y-88730200D01*
X195194094Y-88584518D01*
X195224857Y-88429863D01*
X195224857Y-88272179D01*
X195211155Y-88203296D01*
X195217381Y-88133709D01*
X195260243Y-88078531D01*
X195267676Y-88073568D01*
X195318345Y-88042315D01*
X195442315Y-87918345D01*
X195534356Y-87769124D01*
X195534358Y-87769119D01*
X195589505Y-87602697D01*
X195589506Y-87602690D01*
X195599999Y-87499986D01*
X195600000Y-87499973D01*
X195600000Y-87250000D01*
X194624000Y-87250000D01*
X194556961Y-87230315D01*
X194511206Y-87177511D01*
X194500000Y-87126000D01*
X194500000Y-86874000D01*
X194519685Y-86806961D01*
X194572489Y-86761206D01*
X194624000Y-86750000D01*
X195599999Y-86750000D01*
X195599999Y-86500028D01*
X195599998Y-86500013D01*
X195589505Y-86397302D01*
X195534358Y-86230880D01*
X195534356Y-86230875D01*
X195447215Y-86089597D01*
X195428775Y-86022204D01*
X195449698Y-85955541D01*
X195503340Y-85910771D01*
X195552754Y-85900500D01*
X196375500Y-85900500D01*
X196442539Y-85920185D01*
X196488294Y-85972989D01*
X196499500Y-86024500D01*
X196499500Y-94025500D01*
X196479815Y-94092539D01*
X196427011Y-94138294D01*
X196375500Y-94149500D01*
X181347625Y-94149500D01*
X181280586Y-94129815D01*
X181234831Y-94077011D01*
X181224887Y-94007853D01*
X181253912Y-93944297D01*
X181259944Y-93937819D01*
X181457765Y-93739998D01*
X181708506Y-93489257D01*
X181708511Y-93489253D01*
X181718714Y-93479049D01*
X181718716Y-93479049D01*
X181830520Y-93367245D01*
X181909577Y-93230313D01*
X181920322Y-93190211D01*
X181956685Y-93130552D01*
X182019531Y-93100022D01*
X182069108Y-93101747D01*
X182078565Y-93104022D01*
X182116503Y-93119737D01*
X182271158Y-93150500D01*
X182271698Y-93150500D01*
X182276668Y-93151696D01*
X182304905Y-93167929D01*
X182333758Y-93183022D01*
X182335337Y-93184573D01*
X182356284Y-93205520D01*
X182443095Y-93255639D01*
X182443097Y-93255641D01*
X182481151Y-93277611D01*
X182493215Y-93284577D01*
X182645943Y-93325500D01*
X182804057Y-93325500D01*
X183714933Y-93325500D01*
X183714949Y-93325501D01*
X183722545Y-93325501D01*
X183880656Y-93325501D01*
X183880659Y-93325501D01*
X184033387Y-93284577D01*
X184083506Y-93255639D01*
X184170318Y-93205520D01*
X184282122Y-93093716D01*
X184282122Y-93093714D01*
X184292330Y-93083507D01*
X184292332Y-93083504D01*
X184644134Y-92731701D01*
X184705455Y-92698218D01*
X184775147Y-92703202D01*
X184831080Y-92745074D01*
X184834915Y-92750493D01*
X184878210Y-92815288D01*
X184878213Y-92815292D01*
X184989707Y-92926786D01*
X184989711Y-92926789D01*
X185120814Y-93014390D01*
X185120827Y-93014397D01*
X185206801Y-93050008D01*
X185266503Y-93074737D01*
X185402291Y-93101747D01*
X185421153Y-93105499D01*
X185421156Y-93105500D01*
X185421158Y-93105500D01*
X185578844Y-93105500D01*
X185578845Y-93105499D01*
X185733497Y-93074737D01*
X185879179Y-93014394D01*
X186010289Y-92926789D01*
X186121789Y-92815289D01*
X186209394Y-92684179D01*
X186269737Y-92538497D01*
X186300500Y-92383842D01*
X186300500Y-92366539D01*
X186320185Y-92299500D01*
X186372989Y-92253745D01*
X186442147Y-92243801D01*
X186488650Y-92260422D01*
X186545936Y-92295053D01*
X186702442Y-92343821D01*
X186702440Y-92343821D01*
X186749999Y-92348142D01*
X186750000Y-92348142D01*
X186750000Y-92348141D01*
X187250000Y-92348141D01*
X187297561Y-92343821D01*
X187297570Y-92343819D01*
X187454060Y-92295055D01*
X187454064Y-92295053D01*
X187594331Y-92210260D01*
X187599016Y-92206589D01*
X187663926Y-92180733D01*
X187732510Y-92194075D01*
X187782994Y-92242377D01*
X187799500Y-92304192D01*
X187799500Y-93050015D01*
X187810000Y-93152795D01*
X187810001Y-93152797D01*
X187827471Y-93205519D01*
X187865186Y-93319335D01*
X187865187Y-93319337D01*
X187957286Y-93468651D01*
X187957289Y-93468655D01*
X188081344Y-93592710D01*
X188081348Y-93592713D01*
X188230662Y-93684812D01*
X188230664Y-93684813D01*
X188230666Y-93684814D01*
X188397203Y-93739999D01*
X188499992Y-93750500D01*
X188499997Y-93750500D01*
X189600003Y-93750500D01*
X189600008Y-93750500D01*
X189702797Y-93739999D01*
X189869334Y-93684814D01*
X190018655Y-93592711D01*
X190142711Y-93468655D01*
X190234814Y-93319334D01*
X190289999Y-93152797D01*
X190300500Y-93050008D01*
X190300500Y-91149992D01*
X190289999Y-91047203D01*
X190234814Y-90880666D01*
X190142711Y-90731345D01*
X190018655Y-90607289D01*
X190018651Y-90607286D01*
X189869337Y-90515187D01*
X189869335Y-90515186D01*
X189786065Y-90487593D01*
X189702797Y-90460001D01*
X189702795Y-90460000D01*
X189600015Y-90449500D01*
X189600008Y-90449500D01*
X188499992Y-90449500D01*
X188499984Y-90449500D01*
X188397204Y-90460000D01*
X188397203Y-90460001D01*
X188230664Y-90515186D01*
X188230662Y-90515187D01*
X188081348Y-90607286D01*
X188081343Y-90607290D01*
X188061678Y-90626955D01*
X188000355Y-90660439D01*
X187930663Y-90655453D01*
X187874730Y-90613580D01*
X187850315Y-90548116D01*
X187849999Y-90539272D01*
X187850000Y-90250000D01*
X187250000Y-90250000D01*
X187250000Y-92348141D01*
X186750000Y-92348141D01*
X186750000Y-89750000D01*
X187250000Y-89750000D01*
X187849999Y-89750000D01*
X187849999Y-88270433D01*
X187843821Y-88202438D01*
X187843818Y-88202427D01*
X187795055Y-88045939D01*
X187795053Y-88045935D01*
X187710256Y-87905662D01*
X187710252Y-87905657D01*
X187594342Y-87789747D01*
X187594337Y-87789743D01*
X187454065Y-87704947D01*
X187297562Y-87656179D01*
X187250000Y-87651856D01*
X187250000Y-89750000D01*
X186750000Y-89750000D01*
X186750000Y-87651857D01*
X186736630Y-87639647D01*
X186700402Y-87579904D01*
X186702225Y-87510058D01*
X186714707Y-87482994D01*
X186784814Y-87369334D01*
X186839999Y-87202797D01*
X186850500Y-87100009D01*
X186850499Y-86099992D01*
X186848594Y-86081344D01*
X186844075Y-86037101D01*
X186856845Y-85968408D01*
X186904726Y-85917524D01*
X186967433Y-85900500D01*
X191446659Y-85900500D01*
X191454234Y-85902724D01*
G37*
%TD.AperFunction*%
%TA.AperFunction,Conductor*%
G36*
X176387134Y-87620185D02*
G01*
X176432889Y-87672989D01*
X176441712Y-87700308D01*
X176468204Y-87833491D01*
X176468207Y-87833501D01*
X176528545Y-87979172D01*
X176528552Y-87979185D01*
X176616153Y-88110288D01*
X176616156Y-88110292D01*
X176727650Y-88221786D01*
X176727654Y-88221789D01*
X176858757Y-88309390D01*
X176858770Y-88309397D01*
X177004441Y-88369735D01*
X177004446Y-88369737D01*
X177069090Y-88382595D01*
X177159792Y-88400638D01*
X177221703Y-88433023D01*
X177223282Y-88434574D01*
X178613181Y-89824473D01*
X178627884Y-89851400D01*
X178644477Y-89877219D01*
X178645368Y-89883419D01*
X178646666Y-89885796D01*
X178649500Y-89912154D01*
X178649500Y-90036852D01*
X178629815Y-90103891D01*
X178628603Y-90105742D01*
X178601824Y-90145819D01*
X178601818Y-90145830D01*
X178541480Y-90291500D01*
X178541477Y-90291512D01*
X178510716Y-90446155D01*
X178510119Y-90452220D01*
X178507753Y-90451987D01*
X178491031Y-90508936D01*
X178438227Y-90554691D01*
X178369069Y-90564635D01*
X178321619Y-90547436D01*
X178308383Y-90539272D01*
X178269334Y-90515186D01*
X178269333Y-90515185D01*
X178269332Y-90515185D01*
X178185329Y-90487349D01*
X178102797Y-90460001D01*
X178102795Y-90460000D01*
X178000015Y-90449500D01*
X178000008Y-90449500D01*
X176899992Y-90449500D01*
X176899984Y-90449500D01*
X176797204Y-90460000D01*
X176797203Y-90460001D01*
X176630664Y-90515186D01*
X176630662Y-90515187D01*
X176481348Y-90607286D01*
X176481344Y-90607289D01*
X176357289Y-90731344D01*
X176357286Y-90731348D01*
X176265187Y-90880662D01*
X176265186Y-90880664D01*
X176210001Y-91047203D01*
X176210000Y-91047204D01*
X176199500Y-91149984D01*
X176199500Y-92550903D01*
X176179815Y-92617942D01*
X176127011Y-92663697D01*
X176057853Y-92673641D01*
X175994297Y-92644616D01*
X175987819Y-92638584D01*
X173236819Y-89887584D01*
X173203334Y-89826261D01*
X173200500Y-89799903D01*
X173200500Y-89029765D01*
X173220185Y-88962726D01*
X173221398Y-88960874D01*
X173309390Y-88829185D01*
X173309390Y-88829184D01*
X173309394Y-88829179D01*
X173369737Y-88683497D01*
X173400500Y-88528842D01*
X173400500Y-88371158D01*
X173400500Y-88371155D01*
X173400499Y-88371153D01*
X173368549Y-88210528D01*
X173370534Y-88210133D01*
X173369983Y-88149544D01*
X173407221Y-88090425D01*
X173409148Y-88088759D01*
X173416249Y-88082746D01*
X173481156Y-88042712D01*
X173578455Y-87945412D01*
X173582375Y-87942094D01*
X173609811Y-87929941D01*
X173636142Y-87915564D01*
X173641419Y-87915941D01*
X173646259Y-87913798D01*
X173675904Y-87918407D01*
X173705834Y-87920548D01*
X173710992Y-87923863D01*
X173715299Y-87924533D01*
X173723895Y-87932155D01*
X173750181Y-87949049D01*
X173843844Y-88042712D01*
X173993166Y-88134814D01*
X174159703Y-88189999D01*
X174262491Y-88200500D01*
X175062508Y-88200499D01*
X175062516Y-88200498D01*
X175062519Y-88200498D01*
X175118802Y-88194748D01*
X175165297Y-88189999D01*
X175331834Y-88134814D01*
X175481156Y-88042712D01*
X175605212Y-87918656D01*
X175697314Y-87769334D01*
X175725095Y-87685495D01*
X175764868Y-87628051D01*
X175829384Y-87601228D01*
X175842801Y-87600500D01*
X176320095Y-87600500D01*
X176387134Y-87620185D01*
G37*
%TD.AperFunction*%
%TD*%
M02*
