%TF.GenerationSoftware,KiCad,Pcbnew,9.0.7*%
%TF.CreationDate,2026-06-12T18:11:17+02:00*%
%TF.ProjectId,mainPipboyBoard2,6d61696e-5069-4706-926f-79426f617264,rev?*%
%TF.SameCoordinates,Original*%
%TF.FileFunction,Soldermask,Top*%
%TF.FilePolarity,Negative*%
%FSLAX46Y46*%
G04 Gerber Fmt 4.6, Leading zero omitted, Abs format (unit mm)*
G04 Created by KiCad (PCBNEW 9.0.7) date 2026-06-12 18:11:17*
%MOMM*%
%LPD*%
G01*
G04 APERTURE LIST*
G04 Aperture macros list*
%AMRoundRect*
0 Rectangle with rounded corners*
0 $1 Rounding radius*
0 $2 $3 $4 $5 $6 $7 $8 $9 X,Y pos of 4 corners*
0 Add a 4 corners polygon primitive as box body*
4,1,4,$2,$3,$4,$5,$6,$7,$8,$9,$2,$3,0*
0 Add four circle primitives for the rounded corners*
1,1,$1+$1,$2,$3*
1,1,$1+$1,$4,$5*
1,1,$1+$1,$6,$7*
1,1,$1+$1,$8,$9*
0 Add four rect primitives between the rounded corners*
20,1,$1+$1,$2,$3,$4,$5,0*
20,1,$1+$1,$4,$5,$6,$7,0*
20,1,$1+$1,$6,$7,$8,$9,0*
20,1,$1+$1,$8,$9,$2,$3,0*%
G04 Aperture macros list end*
%ADD10RoundRect,0.102000X0.765000X-0.765000X0.765000X0.765000X-0.765000X0.765000X-0.765000X-0.765000X0*%
%ADD11C,1.734000*%
%ADD12C,1.700000*%
%ADD13R,1.700000X1.700000*%
%ADD14RoundRect,0.250000X0.625000X-0.400000X0.625000X0.400000X-0.625000X0.400000X-0.625000X-0.400000X0*%
%ADD15RoundRect,0.250000X-0.350000X0.850000X-0.350000X-0.850000X0.350000X-0.850000X0.350000X0.850000X0*%
%ADD16RoundRect,0.249997X-2.650003X2.950003X-2.650003X-2.950003X2.650003X-2.950003X2.650003X2.950003X0*%
%ADD17RoundRect,0.250001X-0.624999X0.462499X-0.624999X-0.462499X0.624999X-0.462499X0.624999X0.462499X0*%
%ADD18RoundRect,0.250000X0.650000X-1.000000X0.650000X1.000000X-0.650000X1.000000X-0.650000X-1.000000X0*%
%ADD19RoundRect,0.250000X-0.625000X0.400000X-0.625000X-0.400000X0.625000X-0.400000X0.625000X0.400000X0*%
G04 APERTURE END LIST*
D10*
%TO.C,U1*%
X77336000Y-69930000D03*
D11*
X79876000Y-69930000D03*
X82416000Y-69930000D03*
X84956000Y-69930000D03*
X87496000Y-69930000D03*
X90036000Y-69930000D03*
X92576000Y-69930000D03*
X95116000Y-69930000D03*
X97656000Y-69930000D03*
X100196000Y-69930000D03*
X102736000Y-69930000D03*
X105276000Y-69930000D03*
X107816000Y-69930000D03*
X110356000Y-69930000D03*
X112896000Y-69930000D03*
X115436000Y-69930000D03*
X117976000Y-69930000D03*
X120516000Y-69930000D03*
X123056000Y-69930000D03*
X125596000Y-69930000D03*
X128136000Y-69930000D03*
X130676000Y-69930000D03*
X77306000Y-44000000D03*
X79846000Y-44000000D03*
X82386000Y-44000000D03*
X84926000Y-44000000D03*
X87466000Y-44000000D03*
X90006000Y-44000000D03*
X92546000Y-44000000D03*
X95086000Y-44000000D03*
X97626000Y-44000000D03*
X100166000Y-44000000D03*
X102706000Y-44000000D03*
X105246000Y-44000000D03*
X107786000Y-44000000D03*
X110326000Y-44000000D03*
X112866000Y-44000000D03*
X115406000Y-44000000D03*
X117946000Y-44000000D03*
X120486000Y-44000000D03*
X123026000Y-44000000D03*
X125566000Y-44000000D03*
X128106000Y-44000000D03*
X130646000Y-44000000D03*
%TD*%
D12*
%TO.C,J1*%
X66000000Y-44800000D03*
X66000000Y-47340000D03*
X66000000Y-49880000D03*
X66000000Y-52420000D03*
X66000000Y-54960000D03*
X66000000Y-57500000D03*
X66000000Y-60040000D03*
X66000000Y-62580000D03*
X66000000Y-65120000D03*
X66000000Y-67660000D03*
X66000000Y-70200000D03*
X66000000Y-72740000D03*
X66000000Y-75280000D03*
D13*
X66000000Y-77820000D03*
%TD*%
%TO.C,J3*%
X102760000Y-38525000D03*
D12*
X105300000Y-38525000D03*
X107840000Y-38525000D03*
X110380000Y-38525000D03*
X112920000Y-38525000D03*
X115460000Y-38525000D03*
X118000000Y-38525000D03*
%TD*%
%TO.C,J2*%
X158320000Y-39950000D03*
D13*
X155780000Y-39950000D03*
%TD*%
D12*
%TO.C,J5*%
X148070000Y-39950000D03*
D13*
X145530000Y-39950000D03*
%TD*%
D14*
%TO.C,330om1*%
X150030000Y-72900000D03*
X150030000Y-76000000D03*
%TD*%
%TO.C,330om2*%
X145530000Y-72900000D03*
X145530000Y-76000000D03*
%TD*%
D15*
%TO.C,Q1*%
X149280000Y-53450000D03*
D16*
X147000000Y-59750000D03*
D15*
X144720000Y-53450000D03*
%TD*%
D13*
%TO.C,J10*%
X89000000Y-38525000D03*
D12*
X91540000Y-38525000D03*
%TD*%
D13*
%TO.C,J6*%
X149490000Y-79700000D03*
D12*
X152030000Y-79700000D03*
X154570000Y-79700000D03*
%TD*%
D13*
%TO.C,J4*%
X155780000Y-69950000D03*
D12*
X158320000Y-69950000D03*
%TD*%
D17*
%TO.C,D3*%
X150090000Y-65962500D03*
X150090000Y-68937500D03*
%TD*%
%TO.C,D2*%
X145670000Y-65962500D03*
X145670000Y-68937500D03*
%TD*%
D18*
%TO.C,D1*%
X159530000Y-49450000D03*
X159530000Y-45450000D03*
%TD*%
D19*
%TO.C,10k1*%
X153030000Y-42900000D03*
X153030000Y-46000000D03*
%TD*%
D13*
%TO.C,J11*%
X73750000Y-77475000D03*
D12*
X76290000Y-77475000D03*
%TD*%
D13*
%TO.C,J9*%
X109290000Y-77250000D03*
D12*
X106750000Y-77250000D03*
X104210000Y-77250000D03*
X101670000Y-77250000D03*
X99130000Y-77250000D03*
X96590000Y-77250000D03*
X94050000Y-77250000D03*
%TD*%
D13*
%TO.C,J8*%
X71700000Y-38500000D03*
D12*
X74240000Y-38500000D03*
X76780000Y-38500000D03*
X79320000Y-38500000D03*
%TD*%
D13*
%TO.C,J7*%
X119210000Y-77250000D03*
D12*
X121750000Y-77250000D03*
X124290000Y-77250000D03*
%TD*%
M02*
