%TF.GenerationSoftware,KiCad,Pcbnew,9.0.7*%
%TF.CreationDate,2026-06-12T18:11:17+02:00*%
%TF.ProjectId,mainPipboyBoard2,6d61696e-5069-4706-926f-79426f617264,rev?*%
%TF.SameCoordinates,Original*%
%TF.FileFunction,Copper,L2,Bot*%
%TF.FilePolarity,Positive*%
%FSLAX46Y46*%
G04 Gerber Fmt 4.6, Leading zero omitted, Abs format (unit mm)*
G04 Created by KiCad (PCBNEW 9.0.7) date 2026-06-12 18:11:17*
%MOMM*%
%LPD*%
G01*
G04 APERTURE LIST*
%TA.AperFunction,ComponentPad*%
%ADD10R,1.530000X1.530000*%
%TD*%
%TA.AperFunction,ComponentPad*%
%ADD11C,1.530000*%
%TD*%
%TA.AperFunction,ComponentPad*%
%ADD12C,1.700000*%
%TD*%
%TA.AperFunction,ComponentPad*%
%ADD13R,1.700000X1.700000*%
%TD*%
%TA.AperFunction,ViaPad*%
%ADD14C,1.000000*%
%TD*%
%TA.AperFunction,Conductor*%
%ADD15C,1.000000*%
%TD*%
G04 APERTURE END LIST*
D10*
%TO.P,U1,J1_1,3V3*%
%TO.N,3V3*%
X77336000Y-69930000D03*
D11*
%TO.P,U1,J1_2,3V3*%
X79876000Y-69930000D03*
%TO.P,U1,J1_3,RST*%
%TO.N,unconnected-(U1-RST-PadJ1_3)*%
X82416000Y-69930000D03*
%TO.P,U1,J1_4,GPIO4*%
%TO.N,Net-(J1-Pin_4)*%
X84956000Y-69930000D03*
%TO.P,U1,J1_5,GPIO5*%
%TO.N,Net-(J7-Pin_2)*%
X87496000Y-69930000D03*
%TO.P,U1,J1_6,GPIO6*%
%TO.N,Net-(J9-Pin_2)*%
X90036000Y-69930000D03*
%TO.P,U1,J1_7,GPIO7*%
%TO.N,Net-(J9-Pin_1)*%
X92576000Y-69930000D03*
%TO.P,U1,J1_8,GPIO15*%
%TO.N,Net-(J1-Pin_3)*%
X95116000Y-69930000D03*
%TO.P,U1,J1_9,GPIO16*%
%TO.N,Net-(J8-Pin_2)*%
X97656000Y-69930000D03*
%TO.P,U1,J1_10,GPIO17*%
%TO.N,Net-(J8-Pin_3)*%
X100196000Y-69930000D03*
%TO.P,U1,J1_11,GPIO18*%
%TO.N,Net-(J1-Pin_7)*%
X102736000Y-69930000D03*
%TO.P,U1,J1_12,GPIO8*%
%TO.N,Net-(J9-Pin_3)*%
X105276000Y-69930000D03*
%TO.P,U1,J1_13,GPIO3*%
%TO.N,unconnected-(U1-GPIO3-PadJ1_13)*%
X107816000Y-69930000D03*
%TO.P,U1,J1_14,GPIO46*%
%TO.N,unconnected-(U1-GPIO46-PadJ1_14)*%
X110356000Y-69930000D03*
%TO.P,U1,J1_15,GPIO9*%
%TO.N,Net-(J10-Pin_2)*%
X112896000Y-69930000D03*
%TO.P,U1,J1_16,GPIO10*%
%TO.N,Net-(J11-Pin_2)*%
X115436000Y-69930000D03*
%TO.P,U1,J1_17,GPIO11*%
%TO.N,Net-(J3-Pin_3)*%
X117976000Y-69930000D03*
%TO.P,U1,J1_18,GPIO12*%
%TO.N,Net-(J1-Pin_6)*%
X120516000Y-69930000D03*
%TO.P,U1,J1_19,GPIO13*%
%TO.N,Net-(J1-Pin_5)*%
X123056000Y-69930000D03*
%TO.P,U1,J1_20,GPIO14*%
%TO.N,Net-(J3-Pin_2)*%
X125596000Y-69930000D03*
%TO.P,U1,J1_21,5V0*%
%TO.N,Net-(J6-Pin_1)*%
X128136000Y-69930000D03*
%TO.P,U1,J1_22,GND*%
%TO.N,GND*%
X130676000Y-69930000D03*
%TO.P,U1,J3_1,GND*%
X77306000Y-44000000D03*
%TO.P,U1,J3_2,U0TXD/GPIO43*%
%TO.N,unconnected-(U1-U0TXD{slash}GPIO43-PadJ3_2)*%
X79846000Y-44000000D03*
%TO.P,U1,J3_3,U0RXD/GPIO44*%
%TO.N,unconnected-(U1-U0RXD{slash}GPIO44-PadJ3_3)*%
X82386000Y-44000000D03*
%TO.P,U1,J3_4,GPIO1*%
%TO.N,Net-(J3-Pin_1)*%
X84926000Y-44000000D03*
%TO.P,U1,J3_5,GPIO2*%
%TO.N,unconnected-(U1-GPIO2-PadJ3_5)*%
X87466000Y-44000000D03*
%TO.P,U1,J3_6,MTMS/GPIO42*%
%TO.N,unconnected-(U1-MTMS{slash}GPIO42-PadJ3_6)*%
X90006000Y-44000000D03*
%TO.P,U1,J3_7,MTDI/GPIO41*%
%TO.N,unconnected-(U1-MTDI{slash}GPIO41-PadJ3_7)*%
X92546000Y-44000000D03*
%TO.P,U1,J3_8,MTDO/GPIO40*%
%TO.N,unconnected-(U1-MTDO{slash}GPIO40-PadJ3_8)*%
X95086000Y-44000000D03*
%TO.P,U1,J3_9,MTCK/GPIO39*%
%TO.N,unconnected-(U1-MTCK{slash}GPIO39-PadJ3_9)*%
X97626000Y-44000000D03*
%TO.P,U1,J3_10,GPIO38*%
%TO.N,Net-(J3-Pin_6)*%
X100166000Y-44000000D03*
%TO.P,U1,J3_11,GPIO37*%
%TO.N,unconnected-(U1-GPIO37-PadJ3_11)*%
X102706000Y-44000000D03*
%TO.P,U1,J3_12,GPIO36*%
%TO.N,unconnected-(U1-GPIO36-PadJ3_12)*%
X105246000Y-44000000D03*
%TO.P,U1,J3_13,GPIO35*%
%TO.N,unconnected-(U1-GPIO35-PadJ3_13)*%
X107786000Y-44000000D03*
%TO.P,U1,J3_14,GPIO0*%
%TO.N,unconnected-(U1-GPIO0-PadJ3_14)*%
X110326000Y-44000000D03*
%TO.P,U1,J3_15,GPIO45*%
%TO.N,unconnected-(U1-GPIO45-PadJ3_15)*%
X112866000Y-44000000D03*
%TO.P,U1,J3_16,GPIO48*%
%TO.N,Net-(J3-Pin_5)*%
X115406000Y-44000000D03*
%TO.P,U1,J3_17,GPIO47*%
%TO.N,Net-(J3-Pin_4)*%
X117946000Y-44000000D03*
%TO.P,U1,J3_18,GPIO21*%
%TO.N,unconnected-(U1-GPIO21-PadJ3_18)*%
X120486000Y-44000000D03*
%TO.P,U1,J3_19,USB_D+/GPIO20*%
%TO.N,unconnected-(U1-USB_D+{slash}GPIO20-PadJ3_19)*%
X123026000Y-44000000D03*
%TO.P,U1,J3_20,USB_D-/GPIO19*%
%TO.N,unconnected-(U1-USB_D-{slash}GPIO19-PadJ3_20)*%
X125566000Y-44000000D03*
%TO.P,U1,J3_21,GND*%
%TO.N,GND*%
X128106000Y-44000000D03*
%TO.P,U1,J3_22,GND*%
X130646000Y-44000000D03*
%TD*%
D12*
%TO.P,J1,14,Pin_14*%
%TO.N,unconnected-(J1-Pin_14-Pad14)*%
X66000000Y-44800000D03*
%TO.P,J1,13,Pin_13*%
%TO.N,unconnected-(J1-Pin_13-Pad13)*%
X66000000Y-47340000D03*
%TO.P,J1,12,Pin_12*%
%TO.N,unconnected-(J1-Pin_12-Pad12)*%
X66000000Y-49880000D03*
%TO.P,J1,11,Pin_11*%
%TO.N,unconnected-(J1-Pin_11-Pad11)*%
X66000000Y-52420000D03*
%TO.P,J1,10,Pin_10*%
%TO.N,unconnected-(J1-Pin_10-Pad10)*%
X66000000Y-54960000D03*
%TO.P,J1,9,Pin_9*%
%TO.N,unconnected-(J1-Pin_9-Pad9)*%
X66000000Y-57500000D03*
%TO.P,J1,8,Pin_8*%
%TO.N,3V3*%
X66000000Y-60040000D03*
%TO.P,J1,7,Pin_7*%
%TO.N,Net-(J1-Pin_7)*%
X66000000Y-62580000D03*
%TO.P,J1,6,Pin_6*%
%TO.N,Net-(J1-Pin_6)*%
X66000000Y-65120000D03*
%TO.P,J1,5,Pin_5*%
%TO.N,Net-(J1-Pin_5)*%
X66000000Y-67660000D03*
%TO.P,J1,4,Pin_4*%
%TO.N,Net-(J1-Pin_4)*%
X66000000Y-70200000D03*
%TO.P,J1,3,Pin_3*%
%TO.N,Net-(J1-Pin_3)*%
X66000000Y-72740000D03*
%TO.P,J1,2,Pin_2*%
%TO.N,GND*%
X66000000Y-75280000D03*
D13*
%TO.P,J1,1,Pin_1*%
%TO.N,3V3*%
X66000000Y-77820000D03*
%TD*%
%TO.P,J3,1,Pin_1*%
%TO.N,Net-(J3-Pin_1)*%
X102760000Y-38525000D03*
D12*
%TO.P,J3,2,Pin_2*%
%TO.N,Net-(J3-Pin_2)*%
X105300000Y-38525000D03*
%TO.P,J3,3,Pin_3*%
%TO.N,Net-(J3-Pin_3)*%
X107840000Y-38525000D03*
%TO.P,J3,4,Pin_4*%
%TO.N,Net-(J3-Pin_4)*%
X110380000Y-38525000D03*
%TO.P,J3,5,Pin_5*%
%TO.N,Net-(J3-Pin_5)*%
X112920000Y-38525000D03*
%TO.P,J3,6,Pin_6*%
%TO.N,Net-(J3-Pin_6)*%
X115460000Y-38525000D03*
%TO.P,J3,7,Pin_7*%
%TO.N,GND*%
X118000000Y-38525000D03*
%TD*%
%TO.P,J2,2,Pin_2*%
%TO.N,Net-(D1-A)*%
X158320000Y-39950000D03*
D13*
%TO.P,J2,1,Pin_1*%
%TO.N,GND*%
X155780000Y-39950000D03*
%TD*%
D12*
%TO.P,J5,2,Pin_2*%
%TO.N,Net-(J5-Pin_2)*%
X148070000Y-39950000D03*
D13*
%TO.P,J5,1,Pin_1*%
%TO.N,unconnected-(J5-Pin_1-Pad1)*%
X145530000Y-39950000D03*
%TD*%
%TO.P,J10,1,Pin_1*%
%TO.N,GND*%
X89000000Y-38525000D03*
D12*
%TO.P,J10,2,Pin_2*%
%TO.N,Net-(J10-Pin_2)*%
X91540000Y-38525000D03*
%TD*%
D13*
%TO.P,J6,1,Pin_1*%
%TO.N,Net-(J6-Pin_1)*%
X149490000Y-79700000D03*
D12*
%TO.P,J6,2,Pin_2*%
%TO.N,GND*%
X152030000Y-79700000D03*
%TO.P,J6,3,Pin_3*%
%TO.N,Net-(D1-K)*%
X154570000Y-79700000D03*
%TD*%
D13*
%TO.P,J4,1,Pin_1*%
%TO.N,GND*%
X155780000Y-69950000D03*
D12*
%TO.P,J4,2,Pin_2*%
%TO.N,Net-(D1-K)*%
X158320000Y-69950000D03*
%TD*%
D13*
%TO.P,J11,1,Pin_1*%
%TO.N,GND*%
X73750000Y-77475000D03*
D12*
%TO.P,J11,2,Pin_2*%
%TO.N,Net-(J11-Pin_2)*%
X76290000Y-77475000D03*
%TD*%
D13*
%TO.P,J9,1,Pin_1*%
%TO.N,Net-(J9-Pin_1)*%
X109290000Y-77250000D03*
D12*
%TO.P,J9,2,Pin_2*%
%TO.N,Net-(J9-Pin_2)*%
X106750000Y-77250000D03*
%TO.P,J9,3,Pin_3*%
%TO.N,Net-(J9-Pin_3)*%
X104210000Y-77250000D03*
%TO.P,J9,4,Pin_4*%
%TO.N,Net-(J9-Pin_4)*%
X101670000Y-77250000D03*
%TO.P,J9,5,Pin_5*%
X99130000Y-77250000D03*
%TO.P,J9,6,Pin_6*%
%TO.N,GND*%
X96590000Y-77250000D03*
%TO.P,J9,7,Pin_7*%
%TO.N,Net-(J9-Pin_4)*%
X94050000Y-77250000D03*
%TD*%
D13*
%TO.P,J8,1,Pin_1*%
%TO.N,GND*%
X71700000Y-38500000D03*
D12*
%TO.P,J8,2,Pin_2*%
%TO.N,Net-(J8-Pin_2)*%
X74240000Y-38500000D03*
%TO.P,J8,3,Pin_3*%
%TO.N,Net-(J8-Pin_3)*%
X76780000Y-38500000D03*
%TO.P,J8,4,Pin_4*%
%TO.N,GND*%
X79320000Y-38500000D03*
%TD*%
D13*
%TO.P,J7,1,Pin_1*%
%TO.N,3V3*%
X119210000Y-77250000D03*
D12*
%TO.P,J7,2,Pin_2*%
%TO.N,Net-(J7-Pin_2)*%
X121750000Y-77250000D03*
%TO.P,J7,3,Pin_3*%
%TO.N,GND*%
X124290000Y-77250000D03*
%TD*%
D14*
%TO.N,Net-(J3-Pin_3)*%
X99000000Y-41775000D03*
X85250000Y-53500000D03*
X102500000Y-58500000D03*
X79000000Y-53500000D03*
%TO.N,Net-(J3-Pin_2)*%
X108500000Y-35025000D03*
X133750000Y-52500000D03*
%TO.N,Net-(J3-Pin_6)*%
X114750000Y-40275000D03*
%TO.N,Net-(J3-Pin_4)*%
X111705264Y-41792053D03*
%TO.N,Net-(J10-Pin_2)*%
X126750000Y-65750000D03*
X119250000Y-66250000D03*
%TO.N,Net-(J8-Pin_3)*%
X101500000Y-62250000D03*
X95000000Y-58500000D03*
X76750000Y-41275000D03*
%TO.N,Net-(J8-Pin_2)*%
X82955761Y-61705761D03*
X81250000Y-58250000D03*
X74750000Y-55250000D03*
%TO.N,Net-(J1-Pin_3)*%
X95000000Y-73000000D03*
X79500000Y-73750000D03*
%TO.N,Net-(J11-Pin_2)*%
X111250000Y-82000000D03*
%TO.N,Net-(J1-Pin_7)*%
X79750000Y-63500000D03*
X75250000Y-62500000D03*
%TO.N,Net-(J1-Pin_6)*%
X76000000Y-65000000D03*
X81500000Y-65000000D03*
%TO.N,Net-(J1-Pin_5)*%
X75539261Y-66789261D03*
%TO.N,Net-(J1-Pin_4)*%
X72000000Y-69750000D03*
%TO.N,3V3*%
X75500000Y-73250000D03*
%TO.N,Net-(J7-Pin_2)*%
X112500000Y-78902000D03*
%TO.N,3V3*%
X75500000Y-73250000D03*
X82250000Y-78000000D03*
%TO.N,Net-(J9-Pin_2)*%
X106000000Y-74750000D03*
%TO.N,Net-(J9-Pin_1)*%
X102000000Y-72500000D03*
X107750000Y-72500000D03*
%TO.N,Net-(D1-A)*%
X151780000Y-55950000D03*
X152280000Y-67450000D03*
%TO.N,Net-(D1-K)*%
X158280000Y-58200000D03*
X153530000Y-59700000D03*
%TD*%
D15*
%TO.N,Net-(J3-Pin_2)*%
X133750000Y-42864449D02*
X133750000Y-52500000D01*
X108500000Y-35025000D02*
X125910551Y-35025000D01*
X125910551Y-35025000D02*
X133750000Y-42864449D01*
%TO.N,Net-(J10-Pin_2)*%
X132242000Y-60258000D02*
X126750000Y-65750000D01*
X132242000Y-43196341D02*
X132242000Y-60258000D01*
X129070659Y-40025000D02*
X132242000Y-43196341D01*
X121750000Y-40025000D02*
X129070659Y-40025000D01*
X118683867Y-36874000D02*
X119651000Y-37841133D01*
X101109000Y-36874000D02*
X118683867Y-36874000D01*
X119651000Y-37841133D02*
X119651000Y-38525000D01*
X91540000Y-38525000D02*
X101109000Y-38525000D01*
X101109000Y-38525000D02*
X101109000Y-36874000D01*
X119651000Y-38525000D02*
X120250000Y-38525000D01*
X120250000Y-38525000D02*
X121750000Y-40025000D01*
%TO.N,Net-(J8-Pin_3)*%
X75770000Y-42255000D02*
X76750000Y-41275000D01*
X75770000Y-47718659D02*
X75770000Y-42255000D01*
X95000000Y-58500000D02*
X86551341Y-58500000D01*
X86551341Y-58500000D02*
X75770000Y-47718659D01*
%TO.N,Net-(J3-Pin_3)*%
X70049000Y-44549000D02*
X79000000Y-53500000D01*
X70049000Y-36849000D02*
X70049000Y-44549000D01*
X84929867Y-41775000D02*
X80003867Y-36849000D01*
X99000000Y-41775000D02*
X84929867Y-41775000D01*
X80003867Y-36849000D02*
X70049000Y-36849000D01*
X102500000Y-58500000D02*
X97500000Y-53500000D01*
X97500000Y-53500000D02*
X85250000Y-53500000D01*
%TO.N,Net-(J3-Pin_6)*%
X114750000Y-40275000D02*
X103766000Y-40275000D01*
X103766000Y-40275000D02*
X100196000Y-43845000D01*
%TO.N,Net-(J3-Pin_4)*%
X115923053Y-41792053D02*
X117976000Y-43845000D01*
X111705264Y-41792053D02*
X115923053Y-41792053D01*
%TO.N,Net-(J10-Pin_2)*%
X116576000Y-66250000D02*
X112896000Y-69930000D01*
X119250000Y-66250000D02*
X116576000Y-66250000D01*
%TO.N,Net-(J8-Pin_3)*%
X101500000Y-68626000D02*
X100196000Y-69930000D01*
X101500000Y-62250000D02*
X101500000Y-68626000D01*
%TO.N,Net-(J8-Pin_2)*%
X89431761Y-61705761D02*
X97656000Y-69930000D01*
X82955761Y-61705761D02*
X89431761Y-61705761D01*
X78250000Y-55250000D02*
X81250000Y-58250000D01*
X74750000Y-55250000D02*
X78250000Y-55250000D01*
%TO.N,Net-(J1-Pin_3)*%
X95000000Y-73000000D02*
X95000000Y-70046000D01*
X95000000Y-70046000D02*
X95116000Y-69930000D01*
X77640000Y-71890000D02*
X79500000Y-73750000D01*
X66850000Y-71890000D02*
X77640000Y-71890000D01*
X66000000Y-72740000D02*
X66850000Y-71890000D01*
%TO.N,Net-(J1-Pin_5)*%
X123056000Y-64306000D02*
X123056000Y-69930000D01*
X119000000Y-60250000D02*
X123056000Y-64306000D01*
X82078522Y-60250000D02*
X119000000Y-60250000D01*
X80209207Y-62119315D02*
X82078522Y-60250000D01*
X79288892Y-61199000D02*
X80209207Y-62119315D01*
X74711108Y-61199000D02*
X79288892Y-61199000D01*
X73949000Y-61961108D02*
X74711108Y-61199000D01*
X75359108Y-63801000D02*
X74711108Y-63801000D01*
X74699000Y-65538892D02*
X74699000Y-64461108D01*
X75461108Y-66301000D02*
X74699000Y-65538892D01*
X74699000Y-64461108D02*
X75359108Y-63801000D01*
X76027522Y-66301000D02*
X75461108Y-66301000D01*
X73949000Y-63038892D02*
X73949000Y-61961108D01*
X75539261Y-66789261D02*
X76027522Y-66301000D01*
X74711108Y-63801000D02*
X73949000Y-63038892D01*
%TO.N,Net-(D1-A)*%
X152280000Y-64950000D02*
X151780000Y-64450000D01*
X152280000Y-67450000D02*
X152280000Y-64950000D01*
X151780000Y-64450000D02*
X151780000Y-55950000D01*
%TO.N,Net-(J11-Pin_2)*%
X114500000Y-70866000D02*
X115436000Y-69930000D01*
X114500000Y-78750000D02*
X114500000Y-70866000D01*
X111250000Y-82000000D02*
X114500000Y-78750000D01*
%TO.N,Net-(J1-Pin_7)*%
X78750000Y-62500000D02*
X79750000Y-63500000D01*
X75250000Y-62500000D02*
X78750000Y-62500000D01*
%TO.N,Net-(J1-Pin_6)*%
X76000000Y-65000000D02*
X81500000Y-65000000D01*
%TO.N,Net-(J1-Pin_4)*%
X83390000Y-68364000D02*
X84956000Y-69930000D01*
X73386000Y-68364000D02*
X83390000Y-68364000D01*
X72000000Y-69750000D02*
X73386000Y-68364000D01*
%TO.N,3V3*%
X70570000Y-73250000D02*
X66000000Y-77820000D01*
X75500000Y-73250000D02*
X70570000Y-73250000D01*
%TO.N,Net-(J7-Pin_2)*%
X87496000Y-73030867D02*
X87496000Y-69930000D01*
X93367133Y-78902000D02*
X87496000Y-73030867D01*
X112500000Y-78902000D02*
X93367133Y-78902000D01*
%TO.N,3V3*%
X82250000Y-78000000D02*
X82250000Y-72304000D01*
X82250000Y-72304000D02*
X79876000Y-69930000D01*
%TO.N,Net-(J9-Pin_2)*%
X94856000Y-74750000D02*
X90036000Y-69930000D01*
X106000000Y-74750000D02*
X94856000Y-74750000D01*
%TO.N,Net-(J9-Pin_1)*%
X107750000Y-72500000D02*
X102000000Y-72500000D01*
%TO.N,Net-(D1-K)*%
X156780000Y-59700000D02*
X158280000Y-58200000D01*
X153530000Y-59700000D02*
X156780000Y-59700000D01*
%TD*%
M02*
