%TF.GenerationSoftware,KiCad,Pcbnew,10.0.4*%
%TF.CreationDate,2026-08-24T20:21:08+02:00*%
%TF.ProjectId,btns,62746e73-2e6b-4696-9361-645f70636258,rev?*%
%TF.SameCoordinates,Original*%
%TF.FileFunction,Legend,Top*%
%TF.FilePolarity,Positive*%
%FSLAX46Y46*%
G04 Gerber Fmt 4.6, Leading zero omitted, Abs format (unit mm)*
G04 Created by KiCad (PCBNEW 10.0.4) date 2026-08-24 20:21:08*
%MOMM*%
%LPD*%
G01*
G04 APERTURE LIST*
%ADD10C,0.150000*%
%ADD11C,0.254000*%
%ADD12C,0.120000*%
%ADD13C,0.200000*%
%ADD14C,0.100000*%
G04 APERTURE END LIST*
D10*
X181784819Y-90988094D02*
X180784819Y-90988094D01*
X180784819Y-90988094D02*
X180784819Y-90749999D01*
X180784819Y-90749999D02*
X180832438Y-90607142D01*
X180832438Y-90607142D02*
X180927676Y-90511904D01*
X180927676Y-90511904D02*
X181022914Y-90464285D01*
X181022914Y-90464285D02*
X181213390Y-90416666D01*
X181213390Y-90416666D02*
X181356247Y-90416666D01*
X181356247Y-90416666D02*
X181546723Y-90464285D01*
X181546723Y-90464285D02*
X181641961Y-90511904D01*
X181641961Y-90511904D02*
X181737200Y-90607142D01*
X181737200Y-90607142D02*
X181784819Y-90749999D01*
X181784819Y-90749999D02*
X181784819Y-90988094D01*
X180880057Y-90035713D02*
X180832438Y-89988094D01*
X180832438Y-89988094D02*
X180784819Y-89892856D01*
X180784819Y-89892856D02*
X180784819Y-89654761D01*
X180784819Y-89654761D02*
X180832438Y-89559523D01*
X180832438Y-89559523D02*
X180880057Y-89511904D01*
X180880057Y-89511904D02*
X180975295Y-89464285D01*
X180975295Y-89464285D02*
X181070533Y-89464285D01*
X181070533Y-89464285D02*
X181213390Y-89511904D01*
X181213390Y-89511904D02*
X181784819Y-90083332D01*
X181784819Y-90083332D02*
X181784819Y-89464285D01*
D11*
X173938842Y-91943333D02*
X173999318Y-91761904D01*
X173999318Y-91761904D02*
X173999318Y-91459523D01*
X173999318Y-91459523D02*
X173938842Y-91338571D01*
X173938842Y-91338571D02*
X173878365Y-91278095D01*
X173878365Y-91278095D02*
X173757413Y-91217618D01*
X173757413Y-91217618D02*
X173636461Y-91217618D01*
X173636461Y-91217618D02*
X173515508Y-91278095D01*
X173515508Y-91278095D02*
X173455032Y-91338571D01*
X173455032Y-91338571D02*
X173394556Y-91459523D01*
X173394556Y-91459523D02*
X173334080Y-91701428D01*
X173334080Y-91701428D02*
X173273603Y-91822380D01*
X173273603Y-91822380D02*
X173213127Y-91882857D01*
X173213127Y-91882857D02*
X173092175Y-91943333D01*
X173092175Y-91943333D02*
X172971222Y-91943333D01*
X172971222Y-91943333D02*
X172850270Y-91882857D01*
X172850270Y-91882857D02*
X172789794Y-91822380D01*
X172789794Y-91822380D02*
X172729318Y-91701428D01*
X172729318Y-91701428D02*
X172729318Y-91399047D01*
X172729318Y-91399047D02*
X172789794Y-91217618D01*
X172729318Y-90794285D02*
X173999318Y-90491904D01*
X173999318Y-90491904D02*
X173092175Y-90249999D01*
X173092175Y-90249999D02*
X173999318Y-90008094D01*
X173999318Y-90008094D02*
X172729318Y-89705714D01*
X172850270Y-89282380D02*
X172789794Y-89221904D01*
X172789794Y-89221904D02*
X172729318Y-89100951D01*
X172729318Y-89100951D02*
X172729318Y-88798570D01*
X172729318Y-88798570D02*
X172789794Y-88677618D01*
X172789794Y-88677618D02*
X172850270Y-88617142D01*
X172850270Y-88617142D02*
X172971222Y-88556665D01*
X172971222Y-88556665D02*
X173092175Y-88556665D01*
X173092175Y-88556665D02*
X173273603Y-88617142D01*
X173273603Y-88617142D02*
X173999318Y-89342856D01*
X173999318Y-89342856D02*
X173999318Y-88556665D01*
D10*
X192034819Y-90988094D02*
X191034819Y-90988094D01*
X191034819Y-90988094D02*
X191034819Y-90749999D01*
X191034819Y-90749999D02*
X191082438Y-90607142D01*
X191082438Y-90607142D02*
X191177676Y-90511904D01*
X191177676Y-90511904D02*
X191272914Y-90464285D01*
X191272914Y-90464285D02*
X191463390Y-90416666D01*
X191463390Y-90416666D02*
X191606247Y-90416666D01*
X191606247Y-90416666D02*
X191796723Y-90464285D01*
X191796723Y-90464285D02*
X191891961Y-90511904D01*
X191891961Y-90511904D02*
X191987200Y-90607142D01*
X191987200Y-90607142D02*
X192034819Y-90749999D01*
X192034819Y-90749999D02*
X192034819Y-90988094D01*
X191368152Y-89559523D02*
X192034819Y-89559523D01*
X190987200Y-89797618D02*
X191701485Y-90035713D01*
X191701485Y-90035713D02*
X191701485Y-89416666D01*
X171784819Y-91238094D02*
X170784819Y-91238094D01*
X170784819Y-91238094D02*
X170784819Y-90999999D01*
X170784819Y-90999999D02*
X170832438Y-90857142D01*
X170832438Y-90857142D02*
X170927676Y-90761904D01*
X170927676Y-90761904D02*
X171022914Y-90714285D01*
X171022914Y-90714285D02*
X171213390Y-90666666D01*
X171213390Y-90666666D02*
X171356247Y-90666666D01*
X171356247Y-90666666D02*
X171546723Y-90714285D01*
X171546723Y-90714285D02*
X171641961Y-90761904D01*
X171641961Y-90761904D02*
X171737200Y-90857142D01*
X171737200Y-90857142D02*
X171784819Y-90999999D01*
X171784819Y-90999999D02*
X171784819Y-91238094D01*
X170784819Y-90333332D02*
X170784819Y-89714285D01*
X170784819Y-89714285D02*
X171165771Y-90047618D01*
X171165771Y-90047618D02*
X171165771Y-89904761D01*
X171165771Y-89904761D02*
X171213390Y-89809523D01*
X171213390Y-89809523D02*
X171261009Y-89761904D01*
X171261009Y-89761904D02*
X171356247Y-89714285D01*
X171356247Y-89714285D02*
X171594342Y-89714285D01*
X171594342Y-89714285D02*
X171689580Y-89761904D01*
X171689580Y-89761904D02*
X171737200Y-89809523D01*
X171737200Y-89809523D02*
X171784819Y-89904761D01*
X171784819Y-89904761D02*
X171784819Y-90190475D01*
X171784819Y-90190475D02*
X171737200Y-90285713D01*
X171737200Y-90285713D02*
X171689580Y-90333332D01*
D11*
X194013842Y-91943333D02*
X194074318Y-91761904D01*
X194074318Y-91761904D02*
X194074318Y-91459523D01*
X194074318Y-91459523D02*
X194013842Y-91338571D01*
X194013842Y-91338571D02*
X193953365Y-91278095D01*
X193953365Y-91278095D02*
X193832413Y-91217618D01*
X193832413Y-91217618D02*
X193711461Y-91217618D01*
X193711461Y-91217618D02*
X193590508Y-91278095D01*
X193590508Y-91278095D02*
X193530032Y-91338571D01*
X193530032Y-91338571D02*
X193469556Y-91459523D01*
X193469556Y-91459523D02*
X193409080Y-91701428D01*
X193409080Y-91701428D02*
X193348603Y-91822380D01*
X193348603Y-91822380D02*
X193288127Y-91882857D01*
X193288127Y-91882857D02*
X193167175Y-91943333D01*
X193167175Y-91943333D02*
X193046222Y-91943333D01*
X193046222Y-91943333D02*
X192925270Y-91882857D01*
X192925270Y-91882857D02*
X192864794Y-91822380D01*
X192864794Y-91822380D02*
X192804318Y-91701428D01*
X192804318Y-91701428D02*
X192804318Y-91399047D01*
X192804318Y-91399047D02*
X192864794Y-91217618D01*
X192804318Y-90794285D02*
X194074318Y-90491904D01*
X194074318Y-90491904D02*
X193167175Y-90249999D01*
X193167175Y-90249999D02*
X194074318Y-90008094D01*
X194074318Y-90008094D02*
X192804318Y-89705714D01*
X193227651Y-88677618D02*
X194074318Y-88677618D01*
X192743842Y-88979999D02*
X193650984Y-89282380D01*
X193650984Y-89282380D02*
X193650984Y-88496189D01*
X183938842Y-91943333D02*
X183999318Y-91761904D01*
X183999318Y-91761904D02*
X183999318Y-91459523D01*
X183999318Y-91459523D02*
X183938842Y-91338571D01*
X183938842Y-91338571D02*
X183878365Y-91278095D01*
X183878365Y-91278095D02*
X183757413Y-91217618D01*
X183757413Y-91217618D02*
X183636461Y-91217618D01*
X183636461Y-91217618D02*
X183515508Y-91278095D01*
X183515508Y-91278095D02*
X183455032Y-91338571D01*
X183455032Y-91338571D02*
X183394556Y-91459523D01*
X183394556Y-91459523D02*
X183334080Y-91701428D01*
X183334080Y-91701428D02*
X183273603Y-91822380D01*
X183273603Y-91822380D02*
X183213127Y-91882857D01*
X183213127Y-91882857D02*
X183092175Y-91943333D01*
X183092175Y-91943333D02*
X182971222Y-91943333D01*
X182971222Y-91943333D02*
X182850270Y-91882857D01*
X182850270Y-91882857D02*
X182789794Y-91822380D01*
X182789794Y-91822380D02*
X182729318Y-91701428D01*
X182729318Y-91701428D02*
X182729318Y-91399047D01*
X182729318Y-91399047D02*
X182789794Y-91217618D01*
X182729318Y-90794285D02*
X183999318Y-90491904D01*
X183999318Y-90491904D02*
X183092175Y-90249999D01*
X183092175Y-90249999D02*
X183999318Y-90008094D01*
X183999318Y-90008094D02*
X182729318Y-89705714D01*
X182729318Y-89342856D02*
X182729318Y-88556665D01*
X182729318Y-88556665D02*
X183213127Y-88979999D01*
X183213127Y-88979999D02*
X183213127Y-88798570D01*
X183213127Y-88798570D02*
X183273603Y-88677618D01*
X183273603Y-88677618D02*
X183334080Y-88617142D01*
X183334080Y-88617142D02*
X183455032Y-88556665D01*
X183455032Y-88556665D02*
X183757413Y-88556665D01*
X183757413Y-88556665D02*
X183878365Y-88617142D01*
X183878365Y-88617142D02*
X183938842Y-88677618D01*
X183938842Y-88677618D02*
X183999318Y-88798570D01*
X183999318Y-88798570D02*
X183999318Y-89161427D01*
X183999318Y-89161427D02*
X183938842Y-89282380D01*
X183938842Y-89282380D02*
X183878365Y-89342856D01*
%TO.C,D2*%
D12*
X178365000Y-87790000D02*
X178365000Y-91850000D01*
X180635000Y-87790000D02*
X178365000Y-87790000D01*
X180635000Y-91850000D02*
X180635000Y-87790000D01*
%TO.C,SW2*%
D13*
X171825000Y-91450000D02*
X171825000Y-89050000D01*
D14*
X172350000Y-93350000D02*
X172350000Y-93350000D01*
X172350000Y-93450000D02*
X172350000Y-93450000D01*
D13*
X173025000Y-88150000D02*
X173825000Y-88150000D01*
X173025000Y-92350000D02*
X173825000Y-92350000D01*
X175025000Y-91450000D02*
X175025000Y-89050000D01*
D14*
X172350000Y-93350000D02*
G75*
G02*
X172350000Y-93450000I0J-50000D01*
G01*
X172350000Y-93450000D02*
G75*
G02*
X172350000Y-93350000I0J50000D01*
G01*
%TO.C,D4*%
D12*
X188615000Y-87790000D02*
X188615000Y-91850000D01*
X190885000Y-87790000D02*
X188615000Y-87790000D01*
X190885000Y-91850000D02*
X190885000Y-87790000D01*
%TO.C,D3*%
X168365000Y-88040000D02*
X168365000Y-92100000D01*
X170635000Y-88040000D02*
X168365000Y-88040000D01*
X170635000Y-92100000D02*
X170635000Y-88040000D01*
%TO.C,SW4*%
D13*
X191900000Y-89050000D02*
X191900000Y-91450000D01*
X193900000Y-88150000D02*
X193100000Y-88150000D01*
X193900000Y-92350000D02*
X193100000Y-92350000D01*
D14*
X194575000Y-87050000D02*
X194575000Y-87050000D01*
X194575000Y-87150000D02*
X194575000Y-87150000D01*
D13*
X195100000Y-89050000D02*
X195100000Y-91450000D01*
D14*
X194575000Y-87050000D02*
G75*
G02*
X194575000Y-87150000I0J-50000D01*
G01*
X194575000Y-87150000D02*
G75*
G02*
X194575000Y-87050000I0J50000D01*
G01*
%TO.C,SW3*%
D13*
X181825000Y-91450000D02*
X181825000Y-89050000D01*
D14*
X182350000Y-93350000D02*
X182350000Y-93350000D01*
X182350000Y-93450000D02*
X182350000Y-93450000D01*
D13*
X183025000Y-88150000D02*
X183825000Y-88150000D01*
X183025000Y-92350000D02*
X183825000Y-92350000D01*
X185025000Y-91450000D02*
X185025000Y-89050000D01*
D14*
X182350000Y-93350000D02*
G75*
G02*
X182350000Y-93450000I0J-50000D01*
G01*
X182350000Y-93450000D02*
G75*
G02*
X182350000Y-93350000I0J50000D01*
G01*
%TD*%
M02*
